<svg viewBox="0 0 264.51 42.14" xmlns="http://www.w3.org/2000/svg"><g fill="#fff"><path d="m70.6 13.85a.18.18 0 0 1 .19.18v.55a.17.17 0 0 1 -.19.18h-3.6c-4.08 0-4.89 1.59-4.89 6.84s.81 6.8 4.89 6.8h3.6a.17.17 0 0 1 .19.19v.55a.18.18 0 0 1 -.19.18c-1 .09-2.7.11-3.61.11-4.91 0-6-1.84-6-7.83s1.13-7.86 6-7.86c.91 0 2.56.02 3.61.11z"/><path d="m83.57 16.12 3.61 13c0 .17 0 .21-.14.21h-.86c-.1 0-.13 0-.17-.18l-1.42-5h-6.79l-1.42 5c0 .14-.08.18-.18.18h-.86c-.15 0-.19 0-.17-.21l3.7-13c.58-2.07.81-2.38 2.32-2.38s1.81.31 2.38 2.38zm-3.57.27-1.9 6.67h6.2l-1.84-6.67c-.39-1.4-.48-1.63-1.27-1.63s-.82.24-1.19 1.63z"/><path d="m104.5 13.85a.16.16 0 0 1 .18.18v15.11a.16.16 0 0 1 -.18.18h-.82a.51.51 0 0 1 -.48-.25l-9.31-13.76v13.83c0 .12-.09.18-.21.18h-.76c-.12 0-.2-.06-.2-.18v-15.14c0-.12.08-.18.2-.18h.88a.64.64 0 0 1 .69.35l9.05 13.35v-13.52a.16.16 0 0 1 .18-.18z"/><path d="m123.17 13.85a.17.17 0 0 1 .19.18v15.11a.17.17 0 0 1 -.19.18h-.82a.51.51 0 0 1 -.48-.25l-9.31-13.76v13.83c0 .12-.09.18-.21.18h-.75c-.13 0-.21-.06-.21-.18v-15.14c0-.12.08-.18.21-.18h.87a.64.64 0 0 1 .69.35l9 13.35v-13.52c0-.12.06-.18.19-.18z"/><path d="m139.52 13.85c.13 0 .19.06.19.18v.65a.17.17 0 0 1 -.19.19h-8.29v6.52h7.52a.18.18 0 0 1 .19.21v.64a.17.17 0 0 1 -.19.19h-7.52v5.87h8.29a.17.17 0 0 1 .19.19v.65c0 .12-.06.18-.19.18h-9.15c-.21 0-.31-.1-.31-.29v-14.87a.27.27 0 0 1 .31-.31z"/><path d="m155.73 18.59c0 3.46-.92 4.43-3.59 4.7l3.65 5.78c.08.13 0 .25-.15.25h-.71a.47.47 0 0 1 -.48-.27l-3.59-5.66h-4.09v5.75c0 .14-.07.18-.21.18h-.75c-.15 0-.21 0-.21-.18v-15.14c0-.14.06-.19.21-.19 1.19-.06 2.73-.08 3.59-.08 4.78.01 6.33.45 6.33 4.86zm-9-3.83v7.59h2.57c4 0 5.24-.17 5.24-3.74s-1.19-3.85-5.24-3.85z"/><path d="m171.4 13.84a.39.39 0 0 1 .37.43v1.29c0 .22-.1.33-.31.33h-4.21c-3.18 0-3.73 1.28-3.73 5.63s.55 5.62 3.73 5.62h2.84v-5.14a.29.29 0 0 1 .31-.33h1.86c.2 0 .3.13.3.33v5.94a.75.75 0 0 1 -.08.45c-.45.9-3.1 1.09-5.23 1.09-5.08 0-6.39-1.8-6.39-7.91s1.31-7.92 6.39-7.92a29.47 29.47 0 0 1 4.15.19z"/><path d="m188.74 18.68c0 3.19-.86 4.35-3.25 4.72l3.51 5.52c.16.22.06.4-.25.4h-1.9a.81.81 0 0 1 -.82-.45l-3.37-5.31h-2.49v5.44c0 .24-.06.3-.3.3h-2c-.24 0-.3-.06-.3-.3v-15c0-.23.06-.27.3-.29 1.64-.12 3.48-.16 4.89-.16 4.45.05 5.98.99 5.98 5.13zm-8.62-2.79v5.59h2.31c2.9 0 3.66-.24 3.66-2.74s-.76-2.85-3.66-2.85z"/><path d="m206 21.54c0 6.09-1.31 7.89-6.41 7.89s-6.42-1.8-6.42-7.89 1.33-7.94 6.42-7.94 6.41 1.82 6.41 7.94zm-10.17 0c0 4.31.57 5.6 3.76 5.6s3.78-1.29 3.78-5.6-.6-5.65-3.78-5.65-3.8 1.3-3.8 5.65z"/><path d="m230.66 13.7c.24 0 .3.06.26.33l-2.65 13c-.43 2.12-.8 2.41-2.86 2.41-2.31 0-2.56-.27-3.07-2.41l-2-8.52-2 8.52c-.53 2.14-.76 2.41-3.09 2.41-2 0-2.4-.29-2.83-2.41l-2.66-13c0-.27 0-.33.27-.33h2.12c.18 0 .23.06.29.33l2.41 12c.14.71.26.85.61.85s.51-.14.71-.85l2.8-11.4a.36.36 0 0 1 .39-.33h2a.35.35 0 0 1 .39.33l2.8 11.4c.18.71.28.85.71.85s.45-.14.62-.85l2.41-12c0-.27.1-.33.26-.33z"/><path d="m105.91 34.94s.07 0 .07.07v.2a.07.07 0 0 1 -.08.08h-1.21c-1.12 0-1.34.38-1.34 1.88s.22 1.89 1.34 1.89h1.21a.07.07 0 0 1 .08.08v.2s0 .06-.07.07c-.35 0-1 .05-1.22.05-1.46 0-1.79-.47-1.79-2.29s.33-2.28 1.79-2.28c.25 0 .87.01 1.22.05z"/><path d="m112.21 36.2v2.94c0 .06 0 .15-.15.19a8.81 8.81 0 0 1 -1.68.13c-1.13 0-1.5-.32-1.5-1.3s.4-1.19 1.34-1.19h1.55v-.72c0-.76-.58-1-1.35-1h-1c-.06 0-.08 0-.08-.08v-.17c0-.05 0-.07.07-.08a8.61 8.61 0 0 1 1-.06c1.03.03 1.8.3 1.8 1.34zm-2 1.16c-.65 0-.89.24-.89.8s.24.91 1.13.91a8.28 8.28 0 0 0 1.31-.1v-1.61z"/><path d="m119.26 36.73v2.61c0 .06 0 .08-.09.08h-.28s-.08 0-.08-.08v-2.61c0-1.31-.37-1.44-1.23-1.44h-1.4v4.05c0 .06 0 .08-.08.08h-.29s-.07 0-.07-.08v-4.28c0-.05 0-.07.09-.08a11.48 11.48 0 0 1 1.69-.09c1.23 0 1.74.21 1.74 1.84z"/><path d="m126.31 36.73v2.61c0 .06 0 .08-.09.08h-.28s-.08 0-.08-.08v-2.61c0-1.31-.37-1.44-1.23-1.44h-1.4v4.05c0 .06 0 .08-.07.08h-.3s-.07 0-.07-.08v-4.28c0-.05 0-.07.09-.08a11.48 11.48 0 0 1 1.69-.09c1.24 0 1.74.21 1.74 1.84z"/><path d="m132.87 36.2v2.94c0 .06 0 .15-.16.19a8.81 8.81 0 0 1 -1.68.13c-1.12 0-1.5-.32-1.5-1.3s.4-1.19 1.35-1.19h1.54v-.72c0-.76-.57-1-1.35-1h-1c-.06 0-.07 0-.07-.08v-.17c0-.05 0-.07.06-.08a8.61 8.61 0 0 1 1-.06c1.03.03 1.81.3 1.81 1.34zm-2 1.16c-.66 0-.9.24-.9.8s.24.91 1.13.91a8.28 8.28 0 0 0 1.31-.1v-1.61z"/><path d="m136.76 33.22c.05 0 .07 0 .07.09v1.62h1.19c1.63 0 1.87.43 1.87 2.26s-.24 2.31-1.73 2.31a10.55 10.55 0 0 1 -1.67-.12c-.09 0-.1-.06-.1-.13v-5.9c0-.05 0-.09.07-.09zm.07 2.07v3.71a10.5 10.5 0 0 0 1.33.09c1.15 0 1.29-.38 1.29-1.92s-.15-1.85-1.43-1.85z"/><path d="m143.84 33.76a.31.31 0 1 1 -.61 0 .27.27 0 0 1 .3-.3.28.28 0 0 1 .31.3zm-.16 1.24s.08 0 .08.07v4.32c0 .06 0 .08-.08.08h-.29s-.08 0-.08-.08v-4.39c0-.05 0-.07.08-.07z"/><path d="m149.9 34.94s.06 0 .06.07v.2s0 .08-.07.08h-1.48c-.35 0-.85.08-.85.57v.14c0 .34.1.54.57.74l1.27.53a1 1 0 0 1 .75 1.05v.12c0 .81-.44 1-1.6 1-.41 0-1.2 0-1.4-.05s-.07 0-.07-.07v-.2s0-.08.07-.08h1.41c.87 0 1.14-.12 1.14-.6v-.13c0-.3-.1-.51-.51-.68l-1.31-.54a1.05 1.05 0 0 1 -.76-1.1v-.19c0-.86.84-.93 1.42-.93.26.02.99.03 1.36.07z"/><path d="m161.24 37.21c0 1.83-.24 2.25-1.87 2.25-.4 0-.76 0-1.19 0v1.54a.07.07 0 0 1 -.08.08h-.29a.07.07 0 0 1 -.08-.08v-5.92a.11.11 0 0 1 .11-.12c.81-.06 1.17-.07 1.67-.07 1.49 0 1.73.46 1.73 2.32zm-3.06-1.92v3.71h1.19c1.27 0 1.43-.34 1.43-1.85s-.15-1.92-1.29-1.92z"/><path d="m167.69 36.2v2.94c0 .06 0 .15-.15.19a8.88 8.88 0 0 1 -1.68.13c-1.13 0-1.51-.32-1.51-1.3s.4-1.19 1.35-1.19h1.54v-.72c0-.76-.57-1-1.35-1h-1c-.06 0-.07 0-.07-.08v-.17c0-.05 0-.07.06-.08a8.71 8.71 0 0 1 1-.06c1.03.03 1.81.3 1.81 1.34zm-2 1.16c-.65 0-.9.24-.9.8s.25.91 1.13.91a8.12 8.12 0 0 0 1.31-.1v-1.61z"/><path d="m173.11 35a.08.08 0 0 1 .07.08v.18a.08.08 0 0 1 -.09.08h-.74c-.32 0-.71 0-.71.48v3.57c0 .06 0 .08-.08.08h-.29c-.05 0-.08 0-.08-.08v-3.68c0-.81.81-.82 1.08-.82a5.35 5.35 0 0 1 .84.11z"/><path d="m176.76 33.67c.05 0 .08 0 .08.06v1.27h1c.05 0 .08 0 .08.07v.22s0 .07-.08.07h-1v3.27c0 .39.12.48.54.48h.5c.06 0 .09 0 .09.08v.2s0 .07-.07.09-.43 0-.5 0c-.59 0-1-.1-1-.81v-3.36h-.48s-.08 0-.08-.07v-.24c0-.05 0-.07.08-.07h.48v-1.11s0-.07.07-.09z"/><path d="m181.57 33.76a.31.31 0 1 1 -.62 0 .31.31 0 0 1 .62 0zm-.16 1.24c.05 0 .07 0 .07.07v4.32c0 .06 0 .08-.07.08h-.3c-.05 0-.07 0-.07-.08v-4.39c0-.05 0-.07.07-.07z"/><path d="m187.91 34.94c.05 0 .07 0 .07.07v.2a.07.07 0 0 1 -.08.08h-1.21c-1.13 0-1.34.38-1.34 1.88s.21 1.89 1.34 1.89h1.21a.07.07 0 0 1 .08.08v.2s0 .06-.07.07c-.35 0-1 .05-1.22.05-1.46 0-1.79-.47-1.79-2.29s.33-2.28 1.79-2.28c.25 0 .87.01 1.22.05z"/><path d="m191.71 33.76a.31.31 0 1 1 -.61 0 .27.27 0 0 1 .3-.3.28.28 0 0 1 .31.3zm-.16 1.24s.08 0 .08.07v4.32c0 .06 0 .08-.08.08h-.29s-.08 0-.08-.08v-4.39c0-.05 0-.07.08-.07z"/><path d="m198.69 37.21c0 1.83-.25 2.25-1.88 2.25-.39 0-.75 0-1.18 0v1.54a.07.07 0 0 1 -.08.08h-.29a.07.07 0 0 1 -.08-.08v-5.92a.11.11 0 0 1 .1-.12c.81-.06 1.18-.07 1.68-.07 1.48 0 1.73.46 1.73 2.32zm-3.06-1.92v3.71h1.18c1.28 0 1.43-.34 1.43-1.85s-.14-1.92-1.28-1.92z"/><path d="m205.14 36.2v2.94c0 .06 0 .15-.15.19a9 9 0 0 1 -1.68.13c-1.13 0-1.51-.32-1.51-1.3s.4-1.19 1.35-1.19h1.54v-.72c0-.76-.57-1-1.35-1h-1c-.06 0-.07 0-.07-.08v-.17c0-.05 0-.07.06-.08a8.61 8.61 0 0 1 1.05-.06c.98.03 1.76.3 1.76 1.34zm-2 1.16c-.66 0-.9.24-.9.8s.24.91 1.13.91a8.2 8.2 0 0 0 1.31-.1v-1.61z"/><path d="m209.19 33.67c.06 0 .09 0 .09.06v1.27h1c.05 0 .08 0 .08.07v.22s0 .07-.08.07h-1v3.27c0 .39.11.48.54.48h.5c.06 0 .09 0 .09.08v.2s0 .07-.07.09-.44 0-.5 0c-.6 0-1-.1-1-.81v-3.36h-.47c-.05 0-.09 0-.09-.07v-.24c0-.05 0-.07.09-.07h.47v-1.11s0-.07.08-.09z"/><path d="m214 33.76a.31.31 0 1 1 -.61 0 .27.27 0 0 1 .3-.3.28.28 0 0 1 .31.3zm-.16 1.24s.08 0 .08.07v4.32c0 .06 0 .08-.08.08h-.29c-.05 0-.07 0-.07-.08v-4.39c0-.05 0-.07.07-.07z"/><path d="m220.93 37.17c0 1.82-.33 2.29-1.8 2.29s-1.8-.47-1.8-2.29.34-2.28 1.8-2.28 1.8.47 1.8 2.28zm-3.15 0c0 1.51.22 1.89 1.35 1.89s1.36-.38 1.36-1.89-.22-1.88-1.36-1.88-1.35.38-1.35 1.88z"/><path d="m227.86 36.73v2.61c0 .06 0 .08-.08.08h-.29c-.05 0-.07 0-.07-.08v-2.61c0-1.31-.38-1.44-1.24-1.44h-1.39v4.05c0 .06 0 .08-.08.08h-.29s-.08 0-.08-.08v-4.28c0-.05 0-.07.09-.08a11.62 11.62 0 0 1 1.69-.09c1.24 0 1.74.21 1.74 1.84z"/><path d="m50.81 16.18a5 5 0 1 0 5 5 5 5 0 0 0 -5-5zm3.1 6.07h-2v2h-2.13v-2h-2v-2.1h2v-2h2.09v2h2z"/><path d="m34.08 5.51a.65.65 0 0 0 -.31.08.62.62 0 0 0 -.32.54v2.15a.63.63 0 0 0 .31.54l9.29 5.73a4 4 0 0 0 3.77 0 4.06 4.06 0 0 0 .06-7.07l-11.29-6.81a5.08 5.08 0 0 0 -5.05 0l-10.54 6.06a.63.63 0 0 0 -.11 1l1.46 1.27a.59.59 0 0 0 .71.07l9.79-5.6a2.47 2.47 0 0 1 2.44 0l11.08 6.72a.92.92 0 0 1 .46.83.91.91 0 0 1 -.52.8 1 1 0 0 1 -.94-.06l-10-6.21a.64.64 0 0 0 -.29-.04zm-18.93 7.27a.54.54 0 0 0 -.25.06.61.61 0 0 0 -.37.56v16a4.85 4.85 0 0 0 2.4 4.18l13.62 7.87a5.15 5.15 0 0 0 5.06 0l11.27-6.83a4.06 4.06 0 0 0 0-7.07 3.88 3.88 0 0 0 -3.79 0l-9.26 5.71a.65.65 0 0 0 -.32.55v2.19a.63.63 0 0 0 .31.54.62.62 0 0 0 .63 0l10-6.19a1 1 0 0 1 1-.07.91.91 0 0 1 .52.8.94.94 0 0 1 -.47.84l-11.2 6.72a2.46 2.46 0 0 1 -2.45 0l-13.1-7.57a2.28 2.28 0 0 1 -1.12-2v-14a.61.61 0 0 0 -.21-.46l-1.87-1.68a.62.62 0 0 0 -.4-.15z"/><path d="m11.09 4.22a3.78 3.78 0 0 1 2.51.94l7.11 6.25a4.35 4.35 0 0 1 1.47 3.26v15.49a.14.14 0 0 1 -.06.11h-.12l-2-1.13a.14.14 0 0 1 -.07-.11v-14.03a2.71 2.71 0 0 0 -.93-2.07l-6.42-5.65a1.88 1.88 0 0 0 -.53-.35 2.25 2.25 0 0 0 -2.44.34l-6.43 5.65a2.76 2.76 0 0 0 -.94 2.08v13.33a2.39 2.39 0 0 0 .81 1.8l6.69 5.87a2.08 2.08 0 0 0 1.39.58 2.14 2.14 0 0 0 1.33-.51l1.88-1.43h.08.07l1.81 1.08a.11.11 0 0 1 .06.1.13.13 0 0 1 -.05.11l-2.72 2.19a3.83 3.83 0 0 1 -4.93-.1l-7.21-6.29a4.28 4.28 0 0 1 -1.45-3.21v-13.24a5.67 5.67 0 0 1 1.93-4.28l6.66-5.84a3.77 3.77 0 0 1 2.5-.94"/><path d="m264.5 17.29a4.89 4.89 0 0 0 -2.44-4.21l-7.36-4.23a4.87 4.87 0 0 0 -4.87 0l-7.34 4.26a4.88 4.88 0 0 0 -2.43 4.22v8.49a4.87 4.87 0 0 0 2.46 4.18l3.55 2a5.55 5.55 0 0 1 2.06-3.4 6.59 6.59 0 0 1 3.56 5.86c0 .14.19.17.35.06a6.47 6.47 0 0 0 2.82-5.94 5.52 5.52 0 0 1 2.14 4.24v.1l5.09-2.92a4.87 4.87 0 0 0 2.42-4.21zm-1 1.07-.18.22c-2.05 2.5-6.18 3.45-9.4 3.1-.48-.05-1 .18-.86.83a14.89 14.89 0 0 1 -.25 5.89c-.16.6.16 1 .68 1h.07a2.19 2.19 0 0 1 .92.14 6.26 6.26 0 0 1 -2.23 4.46c-.06 0-.2.06-.2 0a6.88 6.88 0 0 0 -2.54-5 5.42 5.42 0 0 0 2.18-5.76c-.19-.86-.33-1.24-.93-1.28l-.57-.05a10.33 10.33 0 0 1 -8.25-5l-.46-.82a.59.59 0 0 1 .52-.86l2-.12a8.06 8.06 0 0 1 7.54 4.16l.32.6c.18.34.81.71 1.59 0l.37-.51c1.63-2.39 4.4-2.65 7.51-2.07l1.79.35a.55.55 0 0 1 .36.72z"/></g></svg>