<svg viewBox="0 0 55.82 42.14" xmlns="http://www.w3.org/2000/svg"><g fill="#fff"><path d="m50.81 16.18a5 5 0 1 0 5 5 5 5 0 0 0 -5-5zm3.1 6.07h-2v2h-2.13v-2h-2v-2.1h2v-2h2.09v2h2z"/><path d="m34.08 5.51a.65.65 0 0 0 -.31.08.62.62 0 0 0 -.32.54v2.15a.63.63 0 0 0 .31.54l9.29 5.73a4 4 0 0 0 3.77 0 4.06 4.06 0 0 0 .06-7.07l-11.29-6.81a5.08 5.08 0 0 0 -5.05 0l-10.54 6.06a.63.63 0 0 0 -.11 1l1.46 1.27a.59.59 0 0 0 .71.07l9.79-5.6a2.47 2.47 0 0 1 2.44 0l11.08 6.72a.92.92 0 0 1 .46.83.91.91 0 0 1 -.52.8 1 1 0 0 1 -.94-.06l-10-6.21a.64.64 0 0 0 -.29-.04zm-18.93 7.27a.54.54 0 0 0 -.25.06.61.61 0 0 0 -.37.56v16a4.85 4.85 0 0 0 2.4 4.18l13.62 7.87a5.15 5.15 0 0 0 5.06 0l11.27-6.83a4.06 4.06 0 0 0 0-7.07 3.88 3.88 0 0 0 -3.79 0l-9.26 5.71a.65.65 0 0 0 -.32.55v2.19a.63.63 0 0 0 .31.54.62.62 0 0 0 .63 0l10-6.19a1 1 0 0 1 1-.07.91.91 0 0 1 .52.8.94.94 0 0 1 -.47.84l-11.2 6.72a2.46 2.46 0 0 1 -2.45 0l-13.1-7.57a2.28 2.28 0 0 1 -1.12-2v-14a.61.61 0 0 0 -.21-.46l-1.87-1.68a.62.62 0 0 0 -.4-.15z"/><path d="m11.09 4.22a3.78 3.78 0 0 1 2.51.94l7.11 6.25a4.35 4.35 0 0 1 1.47 3.26v15.49a.14.14 0 0 1 -.06.11h-.12l-2-1.13a.14.14 0 0 1 -.07-.11v-14.03a2.71 2.71 0 0 0 -.93-2.07l-6.42-5.65a1.88 1.88 0 0 0 -.53-.35 2.25 2.25 0 0 0 -2.44.34l-6.43 5.65a2.76 2.76 0 0 0 -.94 2.08v13.33a2.39 2.39 0 0 0 .81 1.8l6.69 5.87a2.08 2.08 0 0 0 1.39.58 2.14 2.14 0 0 0 1.33-.51l1.88-1.43h.08.07l1.81 1.08a.11.11 0 0 1 .06.1.13.13 0 0 1 -.05.11l-2.72 2.19a3.83 3.83 0 0 1 -4.93-.1l-7.21-6.29a4.28 4.28 0 0 1 -1.45-3.21v-13.24a5.67 5.67 0 0 1 1.93-4.28l6.66-5.84a3.77 3.77 0 0 1 2.5-.94"/></g></svg>