<svg viewBox="0 0 381.79 61.28" xmlns="http://www.w3.org/2000/svg"><g fill="#666"><path d="m102.65 20.13a.25.25 0 0 1 .27.27v.79c0 .19-.09.28-.27.28h-5.25c-5.93 0-7.11 2.31-7.11 9.93s1.18 9.9 7.11 9.9h5.25a.24.24 0 0 1 .27.27v.79a.25.25 0 0 1 -.27.28c-1.52.12-3.92.15-5.25.15-7.14 0-8.78-2.67-8.78-11.39s1.64-11.4 8.78-11.4c1.33 0 3.73 0 5.25.13z"/><path d="m121.51 23.44 5.25 18.89c.06.25 0 .31-.21.31h-1.25c-.15 0-.18-.06-.24-.28l-2.06-7.36h-9.87l-2.07 7.32c-.06.22-.12.28-.27.28h-1.25c-.21 0-.27-.06-.24-.31l5.37-18.89c.86-3 1.19-3.46 3.38-3.46s2.64.49 3.46 3.5zm-5.23.4-2.73 9.69h9l-2.67-9.69c-.58-2-.7-2.37-1.85-2.37s-1.17.33-1.75 2.37z"/><path d="m151.94 20.13a.24.24 0 0 1 .27.27v22c0 .19-.09.28-.27.28h-1.19a.74.74 0 0 1 -.7-.37l-13.54-20v20.1c0 .19-.12.28-.31.28h-1.09a.26.26 0 0 1 -.3-.28v-22c0-.18.12-.27.3-.27h1.28a.93.93 0 0 1 1 .52l13.15 19.41v-19.67a.24.24 0 0 1 .27-.27z"/><path d="m179.09 20.13a.24.24 0 0 1 .27.27v22c0 .19-.09.28-.27.28h-1.19a.74.74 0 0 1 -.7-.37l-13.54-20v20.1c0 .19-.12.28-.31.28h-1.09a.26.26 0 0 1 -.3-.28v-22c0-.18.12-.27.3-.27h1.28a.94.94 0 0 1 1 .52l13.15 19.41v-19.67a.24.24 0 0 1 .27-.27z"/><path d="m202.86 20.13a.25.25 0 0 1 .28.27v1a.25.25 0 0 1 -.28.27h-12.05v9.43h10.93c.18 0 .27.12.27.3v.94a.24.24 0 0 1 -.27.27h-10.93v8.54h12.05a.25.25 0 0 1 .28.27v.94a.25.25 0 0 1 -.28.28h-13.3c-.3 0-.46-.15-.46-.43v-21.62a.41.41 0 0 1 .46-.46z"/><path d="m226.43 27c0 5-1.34 6.43-5.23 6.83l5.32 8.41c.12.18.06.37-.21.37h-1a.67.67 0 0 1 -.69-.4l-5.27-8.21h-5.95v8.35c0 .22-.09.28-.31.28h-1.09c-.21 0-.3-.06-.3-.28v-22c0-.21.09-.27.3-.27 1.73-.09 4-.12 5.22-.12 6.96.04 9.21.66 9.21 7.04zm-13-5.56v11h3.73c5.9 0 7.63-.24 7.63-5.43s-1.73-5.59-7.63-5.59z"/><path d="m249.21 20.13a.55.55 0 0 1 .54.62v1.87c0 .33-.15.48-.45.48h-6.11c-4.64 0-5.44 1.87-5.44 8.19s.8 8.17 5.44 8.17h4.12v-7.54a.42.42 0 0 1 .45-.48h2.7a.42.42 0 0 1 .45.48v8.64a1.08 1.08 0 0 1 -.12.65c-.66 1.31-4.52 1.58-7.6 1.58-7.4 0-9.3-2.62-9.3-11.5s1.9-11.52 9.3-11.52a41.37 41.37 0 0 1 6.02.36z"/><path d="m274.43 27.17c0 4.63-1.25 6.32-4.72 6.85l5 8c.23.33.08.6-.36.6h-2.76a1.16 1.16 0 0 1 -1.19-.66l-4.9-7.72h-3.62v7.9c0 .36-.09.45-.45.45h-2.94c-.35 0-.44-.09-.44-.45v-21.72c0-.32.09-.38.44-.41 2.38-.18 5.05-.24 7.1-.24 6.61 0 8.84 1.37 8.84 7.4zm-12.53-4.07v8.13h3.35c4.22 0 5.32-.35 5.32-4s-1.1-4.15-5.32-4.15z"/><path d="m299.46 31.32c0 8.85-1.9 11.47-9.32 11.47s-9.32-2.62-9.32-11.47 1.93-11.55 9.32-11.55 9.32 2.64 9.32 11.55zm-14.78 0c0 6.27.83 8.14 5.46 8.14s5.49-1.87 5.49-8.14-.86-8.22-5.49-8.22-5.46 1.9-5.46 8.22z"/><path d="m335.37 19.92c.36 0 .45.09.39.47l-3.86 18.89c-.63 3.09-1.16 3.51-4.16 3.51-3.36 0-3.71-.39-4.46-3.51l-2.94-12.38-2.94 12.38c-.77 3.12-1.09 3.51-4.48 3.51-3 0-3.5-.42-4.13-3.51l-3.86-18.89c-.06-.38 0-.47.39-.47h3.09c.26 0 .32.09.41.47l3.51 17.44c.2 1 .38 1.24.89 1.24s.74-.2 1-1.24l4.07-16.57a.51.51 0 0 1 .56-.48h2.91c.27 0 .47.09.56.48l4.07 16.57c.27 1 .42 1.24 1 1.24s.65-.2.89-1.24l3.51-17.44c.06-.38.15-.47.38-.47z"/><path d="m154 50.8c.08 0 .11.05.11.11v.29c0 .07 0 .11-.13.11h-1.75c-1.64 0-1.95.56-1.95 2.74s.31 2.74 1.95 2.74h1.77a.12.12 0 0 1 .13.13v.28c0 .06 0 .09-.11.1a16.3 16.3 0 0 1 -1.77.08c-2.12 0-2.61-.68-2.61-3.33s.49-3.32 2.61-3.32c.34 0 1.24.01 1.75.07z"/><path d="m163.16 52.64v4.26c0 .1 0 .22-.22.28a12.09 12.09 0 0 1 -2.45.2c-1.64 0-2.18-.48-2.18-1.9 0-1.23.58-1.73 1.95-1.73h2.25v-1c0-1.11-.84-1.4-2-1.4h-1.51c-.09 0-.11 0-.11-.11v-.27c0-.07 0-.09.09-.12a12.88 12.88 0 0 1 1.52-.08c1.5-.04 2.66.36 2.66 1.87zm-2.9 1.69c-.95 0-1.3.34-1.3 1.15 0 1 .35 1.33 1.64 1.33a11.63 11.63 0 0 0 1.91-.15v-2.33z"/><path d="m173.4 53.4v3.81a.11.11 0 0 1 -.12.11h-.42a.1.1 0 0 1 -.11-.11v-3.81c0-1.91-.54-2.09-1.8-2.09h-2v5.9a.1.1 0 0 1 -.11.11h-.42a.1.1 0 0 1 -.11-.11v-6.21c0-.08 0-.11.13-.12a16.92 16.92 0 0 1 2.46-.13c1.77-.02 2.5.25 2.5 2.65z"/><path d="m183.65 53.4v3.81a.11.11 0 0 1 -.12.11h-.41a.1.1 0 0 1 -.11-.11v-3.81c0-1.91-.55-2.09-1.8-2.09h-2v5.9a.1.1 0 0 1 -.11.11h-.43a.1.1 0 0 1 -.11-.11v-6.21c0-.08 0-.11.14-.12a16.72 16.72 0 0 1 2.45-.13c1.77-.02 2.5.25 2.5 2.65z"/><path d="m193.19 52.64v4.26c0 .1 0 .22-.22.28a12.09 12.09 0 0 1 -2.45.2c-1.64 0-2.19-.48-2.19-1.9 0-1.23.59-1.73 2-1.73h2.25v-1c0-1.11-.84-1.4-2-1.4h-1.51c-.08 0-.11 0-.11-.11v-.27c0-.07 0-.09.1-.12a12.88 12.88 0 0 1 1.52-.08c1.47-.04 2.61.36 2.61 1.87zm-2.9 1.69c-.95 0-1.3.34-1.3 1.15 0 1 .35 1.33 1.64 1.33a11.63 11.63 0 0 0 1.91-.15v-2.33z"/><path d="m198.84 48.31a.11.11 0 0 1 .11.12v2.36c.56 0 1.12-.06 1.73-.06 2.37 0 2.72.63 2.72 3.28s-.35 3.37-2.52 3.37a14.38 14.38 0 0 1 -2.43-.18c-.12 0-.14-.09-.14-.19v-8.58c0-.07 0-.12.11-.12zm.11 3v5.35a13.83 13.83 0 0 0 1.93.13c1.67 0 1.88-.54 1.88-2.79s-.22-2.69-2.08-2.69z"/><path d="m209.14 49.09a.4.4 0 0 1 -.45.46c-.28 0-.43-.16-.43-.46a.39.39 0 0 1 .43-.44.4.4 0 0 1 .45.44zm-.23 1.72a.1.1 0 0 1 .11.11v6.29a.1.1 0 0 1 -.11.11h-.42a.1.1 0 0 1 -.11-.11v-6.29a.1.1 0 0 1 .11-.11z"/><path d="m218 50.8a.09.09 0 0 1 .09.11v.29c0 .07 0 .11-.1.11h-2.16c-.5 0-1.22.12-1.22.83v.23c0 .5.13.79.82 1.08l1.85.77a1.45 1.45 0 0 1 1.08 1.53v.17c0 1.18-.63 1.46-2.32 1.46-.6 0-1.74 0-2-.08-.09 0-.1 0-.1-.1v-.28c0-.08 0-.13.11-.13h2c1.27 0 1.67-.18 1.67-.87v-.18a1 1 0 0 0 -.74-1l-1.98-.74a1.52 1.52 0 0 1 -1.11-1.6v-.27c0-1.27 1.23-1.36 2.07-1.36.4-.04 1.45-.03 2.04.03z"/><path d="m234.44 54.11c0 2.65-.35 3.27-2.72 3.27-.58 0-1.1 0-1.73-.06v2.23c0 .08 0 .13-.11.13h-.43c-.07 0-.11 0-.11-.13v-8.55a.17.17 0 0 1 .15-.19c1.18-.08 1.72-.09 2.43-.09 2.17.01 2.52.68 2.52 3.39zm-4.44-2.8v5.42c.56.05 1.17.06 1.73.06 1.86 0 2.07-.49 2.07-2.68s-.2-2.8-1.87-2.8z"/><path d="m243.82 52.64v4.26c0 .1 0 .22-.22.28a12.09 12.09 0 0 1 -2.45.2c-1.64 0-2.18-.48-2.18-1.9 0-1.23.58-1.73 1.95-1.73h2.25v-1c0-1.11-.84-1.4-2-1.4h-1.51c-.08 0-.1 0-.1-.11v-.27c0-.07 0-.09.09-.12a12.88 12.88 0 0 1 1.52-.08c1.52-.04 2.65.36 2.65 1.87zm-2.9 1.69c-.95 0-1.3.34-1.3 1.15 0 1 .35 1.33 1.64 1.33a11.63 11.63 0 0 0 1.91-.15v-2.33z"/><path d="m251.7 50.81c.07 0 .09.06.09.12v.27a.1.1 0 0 1 -.12.11h-1.08c-.46 0-1 .06-1 .71v5.19a.1.1 0 0 1 -.11.11h-.48a.1.1 0 0 1 -.11-.11v-5.29c0-1.18 1.18-1.19 1.57-1.19a8.92 8.92 0 0 1 1.24.08z"/><path d="m257 49c.09 0 .12 0 .12.1v1.76h1.41c.08 0 .12 0 .12.11v.32c0 .07 0 .11-.12.11h-1.41v4.7c0 .56.17.69.79.69h.73c.09 0 .12 0 .12.11v.31c0 .06 0 .09-.09.12a5.76 5.76 0 0 1 -.73.05c-.87 0-1.46-.15-1.46-1.18v-4.85h-.69c-.08 0-.13 0-.13-.11v-.32c0-.07.05-.11.13-.11h.69v-1.64c0-.07 0-.1.11-.12z"/><path d="m264 49.09a.44.44 0 1 1 -.88 0 .44.44 0 1 1 .88 0zm-.23 1.72a.1.1 0 0 1 .11.11v6.29a.1.1 0 0 1 -.11.11h-.42a.1.1 0 0 1 -.11-.11v-6.29a.1.1 0 0 1 .11-.11z"/><path d="m273.21 50.8c.09 0 .11.05.11.11v.29a.11.11 0 0 1 -.12.11h-1.75c-1.64 0-2 .56-2 2.74s.32 2.74 2 2.74h1.75a.12.12 0 0 1 .12.13v.28c0 .06 0 .09-.11.1a16.23 16.23 0 0 1 -1.76.08c-2.13 0-2.61-.68-2.61-3.33s.48-3.32 2.61-3.32c.36 0 1.26.01 1.76.07z"/><path d="m278.75 49.09a.45.45 0 1 1 -.89 0 .45.45 0 0 1 .89 0zm-.23 1.72a.1.1 0 0 1 .11.11v6.29a.1.1 0 0 1 -.11.11h-.43a.1.1 0 0 1 -.11-.11v-6.29a.1.1 0 0 1 .11-.11z"/><path d="m288.89 54.11c0 2.65-.35 3.27-2.72 3.27-.58 0-1.1 0-1.73-.06v2.23c0 .08 0 .13-.11.13h-.43c-.07 0-.11 0-.11-.13v-8.55a.17.17 0 0 1 .15-.19c1.18-.08 1.71-.09 2.43-.09 2.17.01 2.52.68 2.52 3.39zm-4.45-2.8v5.42c.56.05 1.17.06 1.73.06 1.86 0 2.07-.49 2.07-2.68s-.2-2.8-1.87-2.8z"/><path d="m298.27 52.64v4.26c0 .1 0 .22-.22.28a12.09 12.09 0 0 1 -2.45.2c-1.64 0-2.18-.48-2.18-1.9 0-1.23.58-1.73 1.95-1.73h2.25v-1c0-1.11-.84-1.4-2-1.4h-1.51c-.08 0-.1 0-.1-.11v-.27c0-.07 0-.09.09-.12a12.88 12.88 0 0 1 1.52-.08c1.52-.04 2.65.36 2.65 1.87zm-2.9 1.69c-.95 0-1.3.34-1.3 1.15 0 1 .35 1.33 1.64 1.33a11.63 11.63 0 0 0 1.91-.15v-2.33z"/><path d="m304.17 49c.08 0 .12 0 .12.1v1.76h1.41a.11.11 0 0 1 .12.11v.32a.11.11 0 0 1 -.12.11h-1.41v4.7c0 .56.17.69.79.69h.73c.08 0 .12 0 .12.11v.31c0 .06 0 .09-.1.12a5.65 5.65 0 0 1 -.73.05c-.86 0-1.46-.15-1.46-1.18v-4.85h-.64a.11.11 0 0 1 -.12-.11v-.32a.11.11 0 0 1 .12-.11h.69v-1.64c0-.07 0-.1.11-.12z"/><path d="m311.16 49.09a.45.45 0 1 1 -.89 0 .45.45 0 0 1 .89 0zm-.23 1.72a.1.1 0 0 1 .11.11v6.29a.1.1 0 0 1 -.11.11h-.43a.1.1 0 0 1 -.11-.11v-6.29a.1.1 0 0 1 .11-.11z"/><path d="m321.23 54.05c0 2.65-.48 3.33-2.62 3.33s-2.61-.68-2.61-3.33.49-3.32 2.61-3.32 2.62.68 2.62 3.32zm-4.57 0c0 2.18.31 2.74 1.95 2.74s2-.56 2-2.74-.31-2.74-2-2.74-1.95.56-1.95 2.74z"/><path d="m331.31 53.4v3.81a.11.11 0 0 1 -.12.11h-.41a.1.1 0 0 1 -.11-.11v-3.81c0-1.91-.55-2.09-1.8-2.09h-2v5.9a.1.1 0 0 1 -.11.11h-.43a.1.1 0 0 1 -.11-.11v-6.21c0-.08 0-.11.14-.12a16.72 16.72 0 0 1 2.45-.13c1.77-.02 2.5.25 2.5 2.65z"/><path d="m39.59 31.56a.76.76 0 0 1 -.29.63 1.16 1.16 0 0 1 -.77.23 1.74 1.74 0 0 1 -.59-.09 1.44 1.44 0 0 1 -.46-.31l.23-.22a1.2 1.2 0 0 0 .37.26 1.27 1.27 0 0 0 .46.07.84.84 0 0 0 .53-.15.5.5 0 0 0 .19-.42.47.47 0 0 0 -.14-.38.6.6 0 0 0 -.15-.09l-.25-.09h-.36a1.16 1.16 0 0 1 -.56-.23.72.72 0 0 1 -.23-.58.76.76 0 0 1 .26-.62 1 1 0 0 1 .72-.24 1.28 1.28 0 0 1 .5.08 1.19 1.19 0 0 1 .41.25l-.21.22a1 1 0 0 0 -.72-.27.64.64 0 0 0 -.47.16.53.53 0 0 0 -.17.41.41.41 0 0 0 .14.35.74.74 0 0 0 .41.17l.33.05a1.08 1.08 0 0 1 .56.22.73.73 0 0 1 .26.59z"/><path d="m43.66 29.33-.79 3.07h-.3l-.68-2.4-.68 2.45h-.31l-.78-3.07h.35l.6 2.47.67-2.47h.26l.67 2.47.6-2.47z"/><path d="m44.72 32.4h-.33v-3.07h.33z"/><path d="m47.67 31.56a.79.79 0 0 1 -.29.63 1.16 1.16 0 0 1 -.77.23 1.7 1.7 0 0 1 -.59-.09 1.34 1.34 0 0 1 -.46-.31l.22-.22a1.23 1.23 0 0 0 .38.26 1.27 1.27 0 0 0 .46.07.86.86 0 0 0 .53-.15.5.5 0 0 0 .19-.42.43.43 0 0 0 -.3-.47l-.24-.09h-.36a1.2 1.2 0 0 1 -.57-.23.75.75 0 0 1 -.23-.58.77.77 0 0 1 .27-.62 1 1 0 0 1 .71-.24 1.3 1.3 0 0 1 .51.08 1.16 1.16 0 0 1 .4.25l-.21.22a1 1 0 0 0 -.71-.27.64.64 0 0 0 -.47.16.51.51 0 0 0 -.18.41.44.44 0 0 0 .14.35.77.77 0 0 0 .42.17l.33.05a1.08 1.08 0 0 1 .56.22.76.76 0 0 1 .26.59z"/><path d="m50.35 31.56a.79.79 0 0 1 -.29.63 1.16 1.16 0 0 1 -.77.23 1.7 1.7 0 0 1 -.59-.09 1.34 1.34 0 0 1 -.46-.31l.22-.22a1.23 1.23 0 0 0 .38.26 1.27 1.27 0 0 0 .46.07.86.86 0 0 0 .53-.15.5.5 0 0 0 .19-.42.51.51 0 0 0 -.14-.38.6.6 0 0 0 -.15-.09l-.25-.09h-.36a1.2 1.2 0 0 1 -.57-.23.75.75 0 0 1 -.23-.58.77.77 0 0 1 .27-.62 1 1 0 0 1 .71-.24 1.28 1.28 0 0 1 .92.33l-.22.22a1 1 0 0 0 -.71-.27.64.64 0 0 0 -.47.16.5.5 0 0 0 -.17.41.43.43 0 0 0 .13.35.81.81 0 0 0 .42.17l.33.05a1.08 1.08 0 0 1 .56.22.76.76 0 0 1 .26.59z"/><path d="m55.17 32.4h-.33v-2.33l-.84 1.85h-.28l-.85-1.85v2.33h-.33v-3.07h.33l1 2.18 1-2.18h.33z"/><path d="m58.41 32.4h-.35l-.24-.69h-1.34l-.25.69h-.35l1.12-3.07h.28zm-.69-1-.57-1.62-.57 1.62z"/><path d="m61.25 30.83a3.82 3.82 0 0 1 -.06.82 1 1 0 0 1 -.24.46 1.06 1.06 0 0 1 -.78.29h-1.05v-3.07h1.05a1.06 1.06 0 0 1 .78.29.71.71 0 0 1 .15.22 1.65 1.65 0 0 1 .09.21 1.3 1.3 0 0 1 0 .27v.24zm-.33 0v-.39a2.32 2.32 0 0 0 -.05-.3.72.72 0 0 0 -.15-.29.81.81 0 0 0 -.6-.22h-.67v2.48h.67a.81.81 0 0 0 .6-.23.7.7 0 0 0 .15-.3 3.11 3.11 0 0 0 .05-.34z"/><path d="m64.14 32.4h-1.9v-3.07h1.9v.3h-1.57v1.08h1.34v.29h-1.34v1.11h1.57z"/></g><path d="m73.88 23.53a7.29 7.29 0 1 0 7.29 7.29 7.3 7.3 0 0 0 -7.29-7.29zm4.51 8.82h-3v3h-3v-3h-3v-3.05h3v-3h3v3h3z" fill="#f00"/><path d="m49.55 8a.93.93 0 0 0 -.46.12.9.9 0 0 0 -.45.78v3.1a.9.9 0 0 0 .45.78l13.5 8.33a5.75 5.75 0 0 0 5.49.05 5.9 5.9 0 0 0 .08-10.28l-16.42-9.88a7.35 7.35 0 0 0 -7.33 0l-15.41 8.79a.93.93 0 0 0 -.45.69.9.9 0 0 0 .3.77l2.15 1.9a.91.91 0 0 0 1 .1l14.31-8.14a3.53 3.53 0 0 1 3.54 0l16.15 9.76a1.36 1.36 0 0 1 -.09 2.38 1.46 1.46 0 0 1 -1.37-.1l-14.54-9.02a.88.88 0 0 0 -.45-.13zm-27.55 10.59a.8.8 0 0 0 -.37.08.88.88 0 0 0 -.54.82v23.31a7 7 0 0 0 3.5 6.07l19.81 11.44a7.51 7.51 0 0 0 7.36 0l16.39-9.94a5.9 5.9 0 0 0 -.07-10.28 5.63 5.63 0 0 0 -5.51.06l-13.47 8.31a.93.93 0 0 0 -.46.79v3.13a.9.9 0 0 0 1.36.78l14.49-9a1.47 1.47 0 0 1 1.4-.1 1.34 1.34 0 0 1 .74 1.17 1.31 1.31 0 0 1 -.63 1.2l-16.13 9.75a3.58 3.58 0 0 1 -3.57 0l-19-11a3.31 3.31 0 0 1 -1.64-2.85v-20.4a.92.92 0 0 0 -.3-.68l-2.71-2.43a.92.92 0 0 0 -.65-.23z" fill="#666"/><path d="m16.13 6.14a5.53 5.53 0 0 1 3.64 1.36l10.34 9.09a6.3 6.3 0 0 1 2.14 4.74v22.52a.19.19 0 0 1 -.09.16h-.09a.16.16 0 0 1 -.07-.01l-2.89-1.64a.22.22 0 0 1 -.09-.16v-20.41a4 4 0 0 0 -1.35-3l-9.36-8.22a3.24 3.24 0 0 0 -4.32 0l-9.37 8.22a4 4 0 0 0 -1.37 3v19.4a3.49 3.49 0 0 0 1.19 2.61l9.73 8.61a3 3 0 0 0 2 .83 3.15 3.15 0 0 0 1.94-.73l2.74-2.09a.19.19 0 0 1 .11 0 .14.14 0 0 1 .09 0l2.65 1.58a.19.19 0 0 1 .09.14.2.2 0 0 1 -.07.16l-4 3.19a5.55 5.55 0 0 1 -7.16-.14l-10.45-9.22a6.18 6.18 0 0 1 -2.11-4.66v-19.26a8.25 8.25 0 0 1 2.81-6.21l9.68-8.5a5.49 5.49 0 0 1 3.64-1.36" fill="#c0c61f"/><path d="m381.77 25.14a7.07 7.07 0 0 0 -3.54-6.14l-10.7-6.15a7.1 7.1 0 0 0 -7.08 0l-10.67 6.19a7.07 7.07 0 0 0 -3.53 6.13v12.35a7.08 7.08 0 0 0 3.55 6.12l5.16 3a8.1 8.1 0 0 1 3-4.94 9.57 9.57 0 0 1 5.19 8.51c0 .22.26.26.5.1a9.41 9.41 0 0 0 4.1-8.64 8 8 0 0 1 3.16 6.06v.15l7.35-4.26a7.08 7.08 0 0 0 3.52-6.13zm-1.47 1.55-.3.31c-3 3.63-9 5-13.66 4.5-.7-.07-1.42.27-1.25 1.21a21.65 21.65 0 0 1 -.36 8.56c-.25.88.23 1.47 1 1.42h.1a3.15 3.15 0 0 1 1.34.2 9.08 9.08 0 0 1 -3.17 6.54c-.09.08-.29.09-.29-.06a10 10 0 0 0 -3.7-7.32 7.85 7.85 0 0 0 3.17-8.37c-.28-1.25-.47-1.81-1.35-1.87l-.83-.06a15 15 0 0 1 -12-7.36l-.67-1.18a.85.85 0 0 1 .75-1.25l2.93-.18a11.7 11.7 0 0 1 10.95 6l.47.87c.27.5 1.18 1 2.31-.07l.55-.74c2.37-3.47 6.39-3.85 10.92-3l2.59.51a.8.8 0 0 1 .5 1.34z" fill="#c0c61f"/></svg>