<svg xmlns="http://www.w3.org/2000/svg" viewBox="0 0 96 104.88">
    <defs>
        <style>.cls-1{fill:#c0c61f;}.cls-2{fill:white;}</style>
    </defs>
    <title>Element 4</title>
    <g id="Ebene_2" data-name="Ebene 2">
        <g id="Ebene_1-2" data-name="Ebene 1">
            <path class="cls-1"
                  d="M96,35.69a19.11,19.11,0,0,0-9.58-16.53L57.47,2.54a19.08,19.08,0,0,0-19.1,0L9.53,19.29A19.1,19.1,0,0,0,0,35.85L.06,69.19A19.07,19.07,0,0,0,6.83,83.74,26.31,26.31,0,0,1,31.45,66.61H65a26.31,26.31,0,0,1,24.5,16.83A19.1,19.1,0,0,0,96,69ZM48.21,64.44a27,27,0,1,1,27-27A27,27,0,0,1,48.21,64.44Z"/>
            <path class="cls-2" d="M48.21,16.47a21,21,0,1,0,21,21A21,21,0,0,0,48.21,16.47Z"/>
            <path class="cls-2" d="M65,72.57H31.45A20.35,20.35,0,0,0,12,87.07l26.54,15.27a19.1,19.1,0,0,0,19.11,0L84.36,86.82A20.33,20.33,0,0,0,65,72.57Z"/>
        </g>
    </g>
</svg>