<svg xmlns="http://www.w3.org/2000/svg" version="1.1" xmlns:xlink="http://www.w3.org/1999/xlink" xmlns:svgjs="http://svgjs.com/svgjs"  x="0" y="0" viewBox="0 0 523.763 523.763" style="enable-background:new 0 0 512 512" xml:space="preserve" class=""><g><g><g id="alert_1_"><path d="m492.972 504.81h-462.788c-10.721-.002-20.647-5.657-26.115-14.88-5.424-9.395-5.424-20.971 0-30.367l231.393-425.133c5.314-9.456 15.269-15.359 26.115-15.487 11.128-.03 21.381 6.028 26.723 15.791l231.394 425.133c5.424 9.395 5.424 20.971 0 30.367-5.653 9.294-15.847 14.855-26.722 14.576zm-411.772-60.734h360.452l-180.074-331.3z" fill="currentColor" data-original="currentColor" class=""></path><path d="m261.578 322.61c-16.771 0-30.367-13.596-30.367-30.367v-60.733c0-16.771 13.596-30.367 30.367-30.367s30.367 13.596 30.367 30.367v60.733c-.001 16.771-13.596 30.367-30.367 30.367z" fill="currentColor" data-original="currentColor" class=""></path><circle cx="261.578" cy="383.343" r="30.367" fill="currentColor" data-original="currentColor" class=""></circle></g></g></g></svg>