<svg xmlns="http://www.w3.org/2000/svg" version="1.1" xmlns:xlink="http://www.w3.org/1999/xlink" xmlns:svgjs="http://svgjs.com/svgjs" x="0" y="0" viewBox="0 0 32 32" style="enable-background:new 0 0 512 512" xml:space="preserve" class=""><g><g id="Discord" fill="currentColor"><path d="m10.55 25c-1.25.63-5.55-1.62-6.73-2.71-.32-1.69 2.18-11.97 3.89-13.68s5.29-1.71 5.29-1.71a1 1 0 0 0 0-2c-.18 0-4.44 0-6.71 2.29-1.86 1.87-5.73 14.68-4 16.42.84.83 4.9 3.48 7.75 3.48a3.07 3.07 0 0 0 1.41-.3 1 1 0 0 0 .44-1.34 1 1 0 0 0 -1.34-.45z" fill="currentColor" data-original="currentColor" class=""></path><path d="m25.71 7.19c-2.27-2.26-6.53-2.29-6.71-2.29a1 1 0 0 0 0 2c1 0 3.89.31 5.29 1.71 1.71 1.71 4.21 12 3.89 13.68-1.18 1.09-5.48 3.34-6.73 2.71a1 1 0 0 0 -1.34.45 1 1 0 0 0 .44 1.34 3.07 3.07 0 0 0 1.41.3c2.85 0 6.91-2.65 7.75-3.48 1.73-1.74-2.14-14.55-4-16.42z" fill="currentColor" data-original="currentColor" class=""></path><ellipse cx="12" cy="17.4" rx="2" ry="2.25" fill="currentColor" data-original="currentColor" class=""></ellipse><ellipse cx="20" cy="17.4" rx="2" ry="2.25" fill="currentColor" data-original="currentColor" class=""></ellipse><path d="m24 11.9a1 1 0 0 0 .85-.47 1 1 0 0 0 -.32-1.38c-8.43-5.27-16.71-.22-17.06 0a1 1 0 0 0 1.06 1.7c.3-.19 7.58-4.6 14.94 0a1 1 0 0 0 .53.15z" fill="currentColor" data-original="currentColor" class=""></path><path d="m23.09 23.32a1.15 1.15 0 0 0 .2.29 1 1 0 0 0 1.42 0 4.11 4.11 0 0 0 1.29-2.71 1 1 0 0 0 -.56-.9 1 1 0 0 0 -1.05.11 12.9 12.9 0 0 1 -8.39 2.89 13 13 0 0 1 -8.37-2.9 1 1 0 0 0 -1.07-.1 1 1 0 0 0 -.56.9 4.11 4.11 0 0 0 1.29 2.71 1 1 0 0 0 1.42 0 1.15 1.15 0 0 0 .2-.29 14.34 14.34 0 0 0 6.75 1.68h.68a14.34 14.34 0 0 0 6.75-1.68z" fill="currentColor" data-original="currentColor" class=""></path></g></g></svg>