<svg xmlns="http://www.w3.org/2000/svg" version="1.1" xmlns:xlink="http://www.w3.org/1999/xlink" xmlns:svgjs="http://svgjs.com/svgjs"  x="0" y="0" viewBox="0 0 32 32" style="enable-background:new 0 0 512 512" xml:space="preserve" class=""><g><g id="botton-2" data-name="botton"><path d="m22.24 16.44-6.24 6.24-6.24-6.24a2.74 2.74 0 0 0 -3.87 3.87l9.4 9.4a1 1 0 0 0 1.42 0l9.4-9.4a2.74 2.74 0 0 0 -3.87-3.87z" fill="#7d848f" data-original="#7d848f" class=""></path><path d="m15.29 16.07a1 1 0 0 0 1.42 0l9.4-9.4a2.74 2.74 0 0 0 -3.87-3.87l-6.24 6.2-6.24-6.2a2.74 2.74 0 0 0 -3.87 3.87z" fill="currentColor" data-original="currentColor" class=""></path></g></g></svg>