<svg xmlns="http://www.w3.org/2000/svg" viewBox="0 0 903 1001" preserveAspectRatio="xMidYMid meet" style="width: 100%; height: 100%; transform: translate3d(0px, 0px, 0px); content-visibility: visible;"><defs><clipPath id="__lottie_element_38"><rect width="903" height="1001" x="0" y="0"></rect></clipPath></defs><g clip-path="url(#__lottie_element_38)"><g transform="matrix(1,0,0,1,463.5,500.5)" opacity="1" style="display: block;"><path fill="rgb(192,198,31)" fill-opacity="1" d=" M416.44500732421875,-152.33700561523438 C416.3429870605469,-213.6230010986328 383.5530090332031,-270.1990051269531 330.4280090332031,-300.7539978027344 C330.4280090332031,-300.7539978027344 71.02799987792969,-449.94500732421875 71.02799987792969,-449.94500732421875 C17.900999069213867,-480.5 -47.49100112915039,-480.3909912109375 -100.51399993896484,-449.6600036621094 C-100.51399993896484,-449.6600036621094 -359.4179992675781,-299.6090087890625 -359.4179992675781,-299.6090087890625 C-412.4429931640625,-268.87799072265625 -445.04400634765625,-212.19200134277344 -444.9419860839844,-150.906005859375 C-444.9419860839844,-150.906005859375 -444.4440002441406,148.33700561523438 -444.4440002441406,148.33700561523438 C-444.3420104980469,209.6230010986328 -411.552001953125,266.197998046875 -358.4259948730469,296.75299072265625 C-358.4259948730469,296.75299072265625 -99.0260009765625,445.94500732421875 -99.0260009765625,445.94500732421875 C-45.9010009765625,476.5 19.490999221801758,476.3900146484375 72.51599884033203,445.65899658203125 C72.51599884033203,445.65899658203125 331.4179992675781,295.60699462890625 331.4179992675781,295.60699462890625 C384.4429931640625,264.8760070800781 417.04400634765625,208.19200134277344 416.9419860839844,146.90499877929688 C416.9419860839844,146.90499877929688 416.44500732421875,-152.33700561523438 416.44500732421875,-152.33700561523438z"></path></g><g style="display: block;" transform="matrix(5.920000076293945,0,0,5.920000076293945,2772,2250.97998046875)" opacity="1"><path fill="rgb(255,255,255)" fill-opacity="1" d=" M-390.5,-271.6669921875 C-417.7669982910156,-271.6669921875 -439.87200927734375,-260.45001220703125 -439.87200927734375,-246.61300659179688 C-439.87200927734375,-246.61300659179688 -439.87200927734375,-236.38699340820312 -439.87200927734375,-236.38699340820312 C-439.87200927734375,-222.5500030517578 -417.7669982910156,-211.33299255371094 -390.5,-211.33299255371094 C-363.2330017089844,-211.33299255371094 -341.12799072265625,-222.5500030517578 -341.12799072265625,-236.38699340820312 C-341.12799072265625,-236.38699340820312 -341.12799072265625,-246.61300659179688 -341.12799072265625,-246.61300659179688 C-341.12799072265625,-260.45001220703125 -363.2330017089844,-271.6669921875 -390.5,-271.6669921875z M-390.5,-224.48300170898438 C-415.5,-224.48300170898438 -435.7659912109375,-234.39100646972656 -435.7659912109375,-246.61199951171875 C-435.7659912109375,-258.8340148925781 -415.5,-268.7409973144531 -390.5,-268.7409973144531 C-365.5010070800781,-268.7409973144531 -345.2340087890625,-258.8340148925781 -345.2340087890625,-246.61199951171875 C-345.2340087890625,-234.39100646972656 -365.5010070800781,-224.48300170898438 -390.5,-224.48300170898438z"></path><path fill="rgb(192,198,31)" fill-opacity="1" d=" M-390.5,-224.48300170898438 C-415.5,-224.48300170898438 -435.7659912109375,-234.39100646972656 -435.7659912109375,-246.61199951171875 C-435.7659912109375,-258.8340148925781 -415.5,-268.7409973144531 -390.5,-268.7409973144531 C-365.5010070800781,-268.7409973144531 -345.2340087890625,-258.8340148925781 -345.2340087890625,-246.61199951171875 C-345.2340087890625,-234.39100646972656 -365.5010070800781,-224.48300170898438 -390.5,-224.48300170898438z"></path></g><g style="display: block;" transform="matrix(5.920000076293945,0,0,5.920000076293945,2772,2250.97998046875)" opacity="1"><path fill="rgb(192,198,31)" fill-opacity="1" d=" M-390.5,-224.48300170898438 C-415.5,-224.48300170898438 -435.7659912109375,-234.39100646972656 -435.7659912109375,-246.61199951171875 C-435.7659912109375,-258.8340148925781 -415.5,-268.7409973144531 -390.5,-268.7409973144531 C-365.5010070800781,-268.7409973144531 -345.2340087890625,-258.8340148925781 -345.2340087890625,-246.61199951171875 C-345.2340087890625,-234.39100646972656 -365.5010070800781,-224.48300170898438 -390.5,-224.48300170898438z"></path></g><g style="display: block;" transform="matrix(5.920000076293945,0,0,5.920000076293945,2783.840087890625,2162.179931640625)" opacity="1"><path fill="rgb(255,255,255)" fill-opacity="1" d=" M-390.5,-271.6669921875 C-417.7669982910156,-271.6669921875 -439.87200927734375,-260.45001220703125 -439.87200927734375,-246.61300659179688 C-439.87200927734375,-246.61300659179688 -439.87200927734375,-236.38699340820312 -439.87200927734375,-236.38699340820312 C-439.87200927734375,-222.5500030517578 -417.7669982910156,-211.33299255371094 -390.5,-211.33299255371094 C-363.2330017089844,-211.33299255371094 -341.12799072265625,-222.5500030517578 -341.12799072265625,-236.38699340820312 C-341.12799072265625,-236.38699340820312 -341.12799072265625,-246.61300659179688 -341.12799072265625,-246.61300659179688 C-341.12799072265625,-260.45001220703125 -363.2330017089844,-271.6669921875 -390.5,-271.6669921875z M-390.5,-224.48300170898438 C-415.5,-224.48300170898438 -435.7659912109375,-234.39100646972656 -435.7659912109375,-246.61199951171875 C-435.7659912109375,-258.8340148925781 -415.5,-268.7409973144531 -390.5,-268.7409973144531 C-365.5010070800781,-268.7409973144531 -345.2340087890625,-258.8340148925781 -345.2340087890625,-246.61199951171875 C-345.2340087890625,-234.39100646972656 -365.5010070800781,-224.48300170898438 -390.5,-224.48300170898438z"></path><path fill="rgb(192,198,31)" fill-opacity="1" d=" M-390.5,-224.48300170898438 C-415.5,-224.48300170898438 -435.7659912109375,-234.39100646972656 -435.7659912109375,-246.61199951171875 C-435.7659912109375,-258.8340148925781 -415.5,-268.7409973144531 -390.5,-268.7409973144531 C-365.5010070800781,-268.7409973144531 -345.2340087890625,-258.8340148925781 -345.2340087890625,-246.61199951171875 C-345.2340087890625,-234.39100646972656 -365.5010070800781,-224.48300170898438 -390.5,-224.48300170898438z"></path></g><g style="display: block;" transform="matrix(5.920000076293945,0,0,5.920000076293945,2783.840087890625,2162.179931640625)" opacity="1"><path fill="rgb(192,198,31)" fill-opacity="1" d=" M-390.5,-224.48300170898438 C-415.5,-224.48300170898438 -435.7659912109375,-234.39100646972656 -435.7659912109375,-246.61199951171875 C-435.7659912109375,-258.8340148925781 -415.5,-268.7409973144531 -390.5,-268.7409973144531 C-365.5010070800781,-268.7409973144531 -345.2340087890625,-258.8340148925781 -345.2340087890625,-246.61199951171875 C-345.2340087890625,-234.39100646972656 -365.5010070800781,-224.48300170898438 -390.5,-224.48300170898438z"></path></g><g style="display: block;" transform="matrix(5.920000076293945,0,0,5.920000076293945,2748.320068359375,2079.300048828125)" opacity="1"><path fill="rgb(255,255,255)" fill-opacity="1" d=" M-390.5,-271.6669921875 C-417.7669982910156,-271.6669921875 -439.87200927734375,-260.45001220703125 -439.87200927734375,-246.61300659179688 C-439.87200927734375,-246.61300659179688 -439.87200927734375,-236.38699340820312 -439.87200927734375,-236.38699340820312 C-439.87200927734375,-222.5500030517578 -417.7669982910156,-211.33299255371094 -390.5,-211.33299255371094 C-363.2330017089844,-211.33299255371094 -341.12799072265625,-222.5500030517578 -341.12799072265625,-236.38699340820312 C-341.12799072265625,-236.38699340820312 -341.12799072265625,-246.61300659179688 -341.12799072265625,-246.61300659179688 C-341.12799072265625,-260.45001220703125 -363.2330017089844,-271.6669921875 -390.5,-271.6669921875z M-390.5,-224.48300170898438 C-415.5,-224.48300170898438 -435.7659912109375,-234.39100646972656 -435.7659912109375,-246.61199951171875 C-435.7659912109375,-258.8340148925781 -415.5,-268.7409973144531 -390.5,-268.7409973144531 C-365.5010070800781,-268.7409973144531 -345.2340087890625,-258.8340148925781 -345.2340087890625,-246.61199951171875 C-345.2340087890625,-234.39100646972656 -365.5010070800781,-224.48300170898438 -390.5,-224.48300170898438z"></path><path fill="rgb(192,198,31)" fill-opacity="1" d=" M-390.5,-224.48300170898438 C-415.5,-224.48300170898438 -435.7659912109375,-234.39100646972656 -435.7659912109375,-246.61199951171875 C-435.7659912109375,-258.8340148925781 -415.5,-268.7409973144531 -390.5,-268.7409973144531 C-365.5010070800781,-268.7409973144531 -345.2340087890625,-258.8340148925781 -345.2340087890625,-246.61199951171875 C-345.2340087890625,-234.39100646972656 -365.5010070800781,-224.48300170898438 -390.5,-224.48300170898438z"></path></g><g style="display: block;" transform="matrix(5.920000076293945,0,0,5.920000076293945,2748.320068359375,2079.300048828125)" opacity="1"><path fill="rgb(192,198,31)" fill-opacity="1" d=" M-390.5,-224.48300170898438 C-415.5,-224.48300170898438 -435.7659912109375,-234.39100646972656 -435.7659912109375,-246.61199951171875 C-435.7659912109375,-258.8340148925781 -415.5,-268.7409973144531 -390.5,-268.7409973144531 C-365.5010070800781,-268.7409973144531 -345.2340087890625,-258.8340148925781 -345.2340087890625,-246.61199951171875 C-345.2340087890625,-234.39100646972656 -365.5010070800781,-224.48300170898438 -390.5,-224.48300170898438z"></path></g><g style="display: block;" transform="matrix(5.920000076293945,0,0,5.920000076293945,2766.080078125,2008.260009765625)" opacity="1"><path fill="rgb(255,255,255)" fill-opacity="1" d=" M-390.5,-271.6669921875 C-417.7669982910156,-271.6669921875 -439.87200927734375,-260.45001220703125 -439.87200927734375,-246.61300659179688 C-439.87200927734375,-246.61300659179688 -439.87200927734375,-236.38699340820312 -439.87200927734375,-236.38699340820312 C-439.87200927734375,-222.5500030517578 -417.7669982910156,-211.33299255371094 -390.5,-211.33299255371094 C-363.2330017089844,-211.33299255371094 -341.12799072265625,-222.5500030517578 -341.12799072265625,-236.38699340820312 C-341.12799072265625,-236.38699340820312 -341.12799072265625,-246.61300659179688 -341.12799072265625,-246.61300659179688 C-341.12799072265625,-260.45001220703125 -363.2330017089844,-271.6669921875 -390.5,-271.6669921875z M-390.5,-224.48300170898438 C-415.5,-224.48300170898438 -435.7659912109375,-234.39100646972656 -435.7659912109375,-246.61199951171875 C-435.7659912109375,-258.8340148925781 -415.5,-268.7409973144531 -390.5,-268.7409973144531 C-365.5010070800781,-268.7409973144531 -345.2340087890625,-258.8340148925781 -345.2340087890625,-246.61199951171875 C-345.2340087890625,-234.39100646972656 -365.5010070800781,-224.48300170898438 -390.5,-224.48300170898438z"></path><path fill="rgb(192,198,31)" fill-opacity="1" d=" M-390.5,-224.48300170898438 C-415.5,-224.48300170898438 -435.7659912109375,-234.39100646972656 -435.7659912109375,-246.61199951171875 C-435.7659912109375,-258.8340148925781 -415.5,-268.7409973144531 -390.5,-268.7409973144531 C-365.5010070800781,-268.7409973144531 -345.2340087890625,-258.8340148925781 -345.2340087890625,-246.61199951171875 C-345.2340087890625,-234.39100646972656 -365.5010070800781,-224.48300170898438 -390.5,-224.48300170898438z"></path></g><g style="display: block;" transform="matrix(5.920000076293945,0,0,5.920000076293945,2766.080078125,2008.260009765625)" opacity="1"><path fill="rgb(192,198,31)" fill-opacity="1" d=" M-390.5,-224.48300170898438 C-415.5,-224.48300170898438 -435.7659912109375,-234.39100646972656 -435.7659912109375,-246.61199951171875 C-435.7659912109375,-258.8340148925781 -415.5,-268.7409973144531 -390.5,-268.7409973144531 C-365.5010070800781,-268.7409973144531 -345.2340087890625,-258.8340148925781 -345.2340087890625,-246.61199951171875 C-345.2340087890625,-234.39100646972656 -365.5010070800781,-224.48300170898438 -390.5,-224.48300170898438z"></path></g><g style="display: block;" transform="matrix(5.920000076293945,0,0,5.920000076293945,2801.60009765625,1895.780029296875)" opacity="1"><path fill="rgb(255,255,255)" fill-opacity="1" d=" M-390.5,-271.6669921875 C-417.7669982910156,-271.6669921875 -439.87200927734375,-260.45001220703125 -439.87200927734375,-246.61300659179688 C-439.87200927734375,-246.61300659179688 -439.87200927734375,-236.38699340820312 -439.87200927734375,-236.38699340820312 C-439.87200927734375,-222.5500030517578 -417.7669982910156,-211.33299255371094 -390.5,-211.33299255371094 C-363.2330017089844,-211.33299255371094 -341.12799072265625,-222.5500030517578 -341.12799072265625,-236.38699340820312 C-341.12799072265625,-236.38699340820312 -341.12799072265625,-246.61300659179688 -341.12799072265625,-246.61300659179688 C-341.12799072265625,-260.45001220703125 -363.2330017089844,-271.6669921875 -390.5,-271.6669921875z"></path></g><g style="display: block;" transform="matrix(5.920000076293945,0,0,5.920000076293945,2801.60009765625,1895.780029296875)" opacity="1"><path fill="rgb(192,198,31)" fill-opacity="1" d=" M-390.5,-224.48300170898438 C-415.5,-224.48300170898438 -435.7659912109375,-234.39100646972656 -435.7659912109375,-246.61199951171875 C-435.7659912109375,-258.8340148925781 -415.5,-268.7409973144531 -390.5,-268.7409973144531 C-365.5010070800781,-268.7409973144531 -345.2340087890625,-258.8340148925781 -345.2340087890625,-246.61199951171875 C-345.2340087890625,-234.39100646972656 -365.5010070800781,-224.48300170898438 -390.5,-224.48300170898438z"></path></g><g style="display: block;" transform="matrix(5.920000076293945,0,0,5.920000076293945,2724.64013671875,1824.739990234375)" opacity="1"><path fill="rgb(255,255,255)" fill-opacity="1" d=" M-390.5,-271.6669921875 C-363.2330017089844,-271.6669921875 -341.12799072265625,-260.45001220703125 -341.12799072265625,-246.61300659179688 C-341.12799072265625,-246.61300659179688 -341.12799072265625,-236.38699340820312 -341.12799072265625,-236.38699340820312 C-341.12799072265625,-222.5500030517578 -363.2330017089844,-211.33299255371094 -390.5,-211.33299255371094 C-417.7669982910156,-211.33299255371094 -439.87200927734375,-222.5500030517578 -439.87200927734375,-236.38699340820312 C-439.87200927734375,-236.38699340820312 -439.87200927734375,-246.61300659179688 -439.87200927734375,-246.61300659179688 C-439.87200927734375,-260.45001220703125 -417.7669982910156,-271.6669921875 -390.5,-271.6669921875z"></path></g><g style="display: block;" transform="matrix(5.920000076293945,0,0,5.920000076293945,2724.64013671875,1824.739990234375)" opacity="1"><path fill="rgb(192,198,31)" fill-opacity="1" d=" M-390.5,-224.48300170898438 C-415.5,-224.48300170898438 -435.7659912109375,-234.39100646972656 -435.7659912109375,-246.61199951171875 C-435.7659912109375,-258.8340148925781 -415.5,-268.7409973144531 -390.5,-268.7409973144531 C-365.5010070800781,-268.7409973144531 -345.2340087890625,-258.8340148925781 -345.2340087890625,-246.61199951171875 C-345.2340087890625,-234.39100646972656 -365.5010070800781,-224.48300170898438 -390.5,-224.48300170898438z"></path></g></g></svg>