<svg viewBox="0 0 198.88 49.29" xmlns="http://www.w3.org/2000/svg" class="footer-logo"><path d="M81.05 17.87a.16.16 0 01.17.17v.48c0 .11-.06.16-.17.16h-3.18c-3.58 0-4.3 1.4-4.3 6s.72 6 4.3 6h3.18a.15.15 0 01.17.17v.48a.16.16 0 01-.17.16c-.92.08-2.37.1-3.18.1-4.32 0-5.31-1.62-5.31-6.9s1-6.91 5.31-6.91c.81 0 2.26.02 3.18.09zM92.47 19.88l3.18 11.43c0 .15 0 .18-.13.18h-.76c-.09 0-.11 0-.14-.16l-1.25-4.43h-6l-1.25 4.43c0 .13-.07.16-.16.16h-.76c-.13 0-.16 0-.14-.18l3.25-11.43c.52-1.82.72-2.1 2-2.1s1.69.28 2.16 2.1zm-3.17.24L87.65 26h5.46l-1.62-5.86c-.35-1.24-.42-1.44-1.12-1.44s-.72.18-1.07 1.42zM110.88 17.87a.15.15 0 01.17.17v13.29c0 .11-.06.16-.17.16h-.72a.44.44 0 01-.42-.22l-8.2-12.11v12.17c0 .11-.07.16-.18.16h-.66c-.11 0-.19 0-.19-.16V18a.17.17 0 01.19-.17h.77a.58.58 0 01.61.32l8 11.74V18a.15.15 0 01.17-.17zM127.31 17.87a.15.15 0 01.17.17v13.29c0 .11-.06.16-.17.16h-.71a.45.45 0 01-.43-.22L118 19.16v12.17c0 .11-.07.16-.18.16h-.66c-.11 0-.18 0-.18-.16V18a.16.16 0 01.18-.17h.77a.57.57 0 01.61.32l8 11.74V18c0-.11 0-.17.16-.17zM141.7 17.87a.15.15 0 01.17.17v.57c0 .11-.06.16-.17.16h-7.3v5.74h6.6a.16.16 0 01.17.18v.57a.15.15 0 01-.17.17h-6.6v5.16h7.3a.15.15 0 01.17.17v.57c0 .11-.06.16-.17.16h-8c-.18 0-.27-.09-.27-.25V18.15a.25.25 0 01.27-.28zM156 22.05c0 3.05-.81 3.89-3.16 4.13l3.16 5.09c.07.11 0 .22-.13.22h-.62a.42.42 0 01-.43-.24l-3.16-5h-3.6v5.06c0 .13-.06.16-.19.16h-.66c-.13 0-.18 0-.18-.16V18c0-.13 0-.16.18-.16 1.05-.06 2.41-.08 3.16-.08 4.23.02 5.63.41 5.63 4.29zm-7.88-3.37v6.67h2.26c3.57 0 4.61-.14 4.61-3.29s-1-3.38-4.61-3.38zM167.43 19.88l3.18 11.43c0 .15 0 .18-.13.18h-.75c-.09 0-.11 0-.15-.16l-1.25-4.43h-6l-1.25 4.43c0 .13-.07.16-.17.16h-.75c-.13 0-.16 0-.15-.18l3.26-11.43c.51-1.82.71-2.1 2-2.1s1.67.28 2.16 2.1zm-3.16.24L162.62 26h5.46l-1.62-5.86c-.35-1.24-.42-1.44-1.12-1.44s-.72.18-1.07 1.42zM176.33 17.87a.16.16 0 01.18.17v12.55h7.19a.16.16 0 01.18.17v.57c0 .11-.07.16-.18.16h-7.94c-.17 0-.28-.07-.28-.25V18a.16.16 0 01.18-.17zM198.88 24.67c0 5.11-1.2 6.92-5.37 6.92-1 0-3.91 0-5-.08-.13 0-.18 0-.18-.16V18c0-.13 0-.16.18-.16 1-.06 3.95-.08 5-.08 4.17.02 5.37 1.84 5.37 6.91zm-9.49-6v12h4.12c3.42 0 4.36-1.56 4.36-6s-1-6-4.49-6zM59.65 19.36a5.43 5.43 0 11-5.43 5.43 5.44 5.44 0 015.43-5.43M58 23.14h-1.94a.44.44 0 00-.44.43V26a.44.44 0 00.44.43H58v1.97a.44.44 0 00.43.44h2.45a.44.44 0 00.43-.44v-1.95h2a.44.44 0 00.44-.43v-2.45a.44.44 0 00-.44-.43h-2v-1.95a.44.44 0 00-.43-.44h-2.44a.44.44 0 00-.43.44v1.95m1.64-4.21a5.86 5.86 0 105.86 5.86 5.86 5.86 0 00-5.86-5.86zM56.06 26v-2.43h2.38v-2.38h2.45v2.38h2.38V26h-2.38v2.4h-2.45V26zM13.3 45.84a4.72 4.72 0 01-3.09-1.17l-8.44-7.4A5.22 5.22 0 010 33.36V17.87a6.88 6.88 0 012.33-5.16l7.79-6.84a4.67 4.67 0 016.14 0l8.32 7.31a5.33 5.33 0 011.8 4v18.09a.37.37 0 01-.19.32.38.38 0 01-.36 0l-2.32-1.32a.38.38 0 01-.18-.32V17.53a3 3 0 00-1-2.24l-7.54-6.61a2.22 2.22 0 00-.56-.38 2.41 2.41 0 00-2.63.37l-7.53 6.61a3 3 0 00-1 2.26v15.59a2.58 2.58 0 00.88 1.94L11.76 42a2.1 2.1 0 002.9.07l2.2-1.68a.38.38 0 01.41 0l2.12 1.27a.38.38 0 01.18.28.33.33 0 01-.14.31l-3.18 2.57a4.69 4.69 0 01-2.95 1.02zm-.11-40.69a4.21 4.21 0 00-2.79 1L2.62 13a6.43 6.43 0 00-2.19 4.87v15.49A4.77 4.77 0 002.06 37l8.43 7.39a4.26 4.26 0 005.48.12L19.09 42l-2-1.19-2.17 1.65a2.52 2.52 0 01-3.45-.09L3.64 35.4a3 3 0 01-1-2.27V17.54A3.44 3.44 0 013.79 15l7.52-6.61a2.9 2.9 0 013.1-.44 3.14 3.14 0 01.67.45L22.6 15a3.41 3.41 0 011.16 2.57v16.34L26 35.16v-18a4.86 4.86 0 00-1.66-3.65L16 6.2a4.16 4.16 0 00-2.81-1.05z"></path><path d="M40.07 6.44a.68.68 0 00-.36.1.72.72 0 00-.37.63v2.52a.73.73 0 00.36.63L50.56 17a4.6 4.6 0 004.42 0 4.74 4.74 0 00.07-8.26L41.84.78a5.94 5.94 0 00-5.9 0l-12.37 7.1a.71.71 0 00-.36.55.71.71 0 00.24.62l1.73 1.53a.74.74 0 00.84.08l11.45-6.55a2.85 2.85 0 012.85 0l13 7.85a1.06 1.06 0 01.54 1 1.11 1.11 0 01-.61 1 1.17 1.17 0 01-1.1-.08L40.43 6.54a.65.65 0 00-.36-.1zM17.93 15a.59.59 0 00-.29.07.71.71 0 00-.43.66v18.7A5.61 5.61 0 0020 39.31l15.92 9.21a6.06 6.06 0 005.92 0l13.19-8a4.74 4.74 0 00-.03-8.26 4.51 4.51 0 00-4.43.05L39.72 39a.71.71 0 00-.38.63v2.52a.72.72 0 00.37.63.73.73 0 00.73 0l11.66-7.26a1.16 1.16 0 011.12-.08 1.09 1.09 0 01.6.94 1.05 1.05 0 01-.55 1L40.33 45.2a2.88 2.88 0 01-2.87 0l-15.31-8.85a2.65 2.65 0 01-1.31-2.29V17.64a.69.69 0 00-.25-.54l-2.18-2a.75.75 0 00-.48-.1z"></path></svg>