<svg
  xmlns="http://www.w3.org/2000/svg"
  version="1.1"
  xmlns:xlink="http://www.w3.org/1999/xlink"
  xmlns:svgjs="http://svgjs.com/svgjs"
  x="0"
  y="0"
  viewBox="0 0 24 24"
  style="enable-background:new 0 0 512 512"
  xml:space="preserve"
  class=""
><g><path
      d="m12 24a11 11 0 0 0 4.4-21.077 1 1 0 1 0 -.8 1.833 9 9 0 1 1 -7.2 0 1 1 0 1 0 -.8-1.833 11 11 0 0 0 4.4 21.077z"
      fill="#0c0c0c"
      data-original="#000000"
      class=""
    /><path
      d="m12 10a1 1 0 0 0 1-1v-8a1 1 0 0 0 -2 0v8a1 1 0 0 0 1 1z"
      fill="#0c0c0c"
      data-original="#000000"
      class=""
    /></g></svg>
