
    <svg xmlns="http://www.w3.org/2000/svg" version="1.1" xmlns:xlink="http://www.w3.org/1999/xlink" xmlns:svgjs="http://svgjs.com/svgjs" x="0" y="0" viewBox="0 0 475.176 475.176" style="enable-background:new 0 0 512 512" xml:space="preserve" class=""><g><g><g><path d="m448.776 422.378h-184.791c-14.58 0-26.399-11.82-26.399-26.399s11.819-26.399 26.399-26.399h184.791c14.58 0 26.399 11.82 26.399 26.399s-11.819 26.399-26.399 26.399zm0-158.391h-422.377c-14.58 0-26.399-11.82-26.399-26.399 0-14.58 11.819-26.399 26.399-26.399h422.378c14.58 0 26.399 11.819 26.399 26.399 0 14.579-11.82 26.399-26.4 26.399zm0-158.392h-422.377c-14.58 0-26.399-11.819-26.399-26.399s11.819-26.399 26.399-26.399h422.378c14.58 0 26.399 11.819 26.399 26.399s-11.82 26.399-26.4 26.399z" fill="#000000" data-original="#000000" class=""></path></g></g></g></svg>
 