<svg xmlns="http://www.w3.org/2000/svg" viewBox="0 0 268 370" preserveAspectRatio="xMidYMid meet" style="width: 100%; height: 100%; transform: translate3d(0px, 0px, 0px); content-visibility: visible;"><defs><clipPath id="__lottie_element_2"><rect width="268" height="370" x="0" y="0"></rect></clipPath><filter id="__lottie_element_7" filterUnits="objectBoundingBox" x="0%" y="0%" width="100%" height="100%"><feComponentTransfer in="SourceGraphic"><feFuncA type="table" tableValues="1.0 0.0"></feFuncA></feComponentTransfer></filter><mask id="__lottie_element_6" mask-type="alpha"><g filter="url(#__lottie_element_7)"><rect width="268" height="370" x="0" y="0" fill="#ffffff" opacity="0"></rect><g transform="matrix(0.2448199987411499,0,0,0.2448199987411499,137.5,185)" opacity="1" style="display: block;"><path fill="rgb(27,27,109)" fill-opacity="1" d=" M157.01400756835938,211.4669952392578 C154.6320037841797,152.1439971923828 125.5790023803711,100.2030029296875 81.88500213623047,66.69000244140625 C88.15899658203125,144.65899658203125 55.763999938964844,223.4040069580078 -16.54199981689453,273.0509948730469 C-22.125,276.885009765625 -28.343000411987305,275.8380126953125 -28.434999465942383,270.75201416015625 C-30.07900047302246,180.14999389648438 -79.24099731445312,103.71700286865234 -152.28700256347656,67.12300109863281 C-199.8300018310547,103.8759994506836 -229.4980010986328,162.2760009765625 -226.9029998779297,226.89100646972656 C-222.64599609375,332.90399169921875 -133.25100708007812,415.3909912109375 -27.236000061035156,411.13299560546875 C78.77999877929688,406.87298583984375 161.27099609375,317.4800109863281 157.01400756835938,211.4669952392578z M368.8999938964844,-322.39898681640625 C368.8999938964844,-322.39898681640625 306.8529968261719,-334.3680114746094 306.8529968261719,-334.3680114746094 C198.5800018310547,-354.6059875488281 102.5770034790039,-345.4989929199219 45.9109992980957,-262.52301025390625 C45.9109992980957,-262.52301025390625 32.77899932861328,-244.73599243164062 32.77899932861328,-244.73599243164062 C5.76800012588501,-218.375 -16.058000564575195,-231.1540069580078 -22.47800064086914,-243.16900634765625 C-22.47800064086914,-243.16900634765625 -33.58599853515625,-263.9590148925781 -33.58599853515625,-263.9590148925781 C-82.41300201416016,-355.3389892578125 -185.68600463867188,-415.3909912109375 -295.3580017089844,-408.6510009765625 C-295.3580017089844,-408.6510009765625 -365.31201171875,-404.35198974609375 -365.31201171875,-404.35198974609375 C-381.2019958496094,-403.375 -390.75201416015625,-387.54998779296875 -383.34600830078125,-374.4679870605469 C-383.34600830078125,-374.4679870605469 -367.2980041503906,-346.1199951171875 -367.2980041503906,-346.1199951171875 C-310.5169982910156,-245.82000732421875 -202.32899475097656,-179.50100708007812 -80.63300323486328,-170.39300537109375 C-80.63300323486328,-170.39300537109375 -61.01300048828125,-168.89300537109375 -61.01300048828125,-168.89300537109375 C-39.9010009765625,-167.31300354003906 -35.26599884033203,-154.00799560546875 -28.670000076293945,-124.12200164794922 C-6.914999961853027,-25.56100082397461 -59.448001861572266,48.15800094604492 -104.32599639892578,75.92500305175781 C-56.22700119018555,117.5999984741211 -14.675000190734863,182.5749969482422 -16.01300048828125,250.91400146484375 C-16.08099937438965,254.33999633789062 -11.16100025177002,254.13499450683594 -9.032999992370605,252.32899475097656 C38.676998138427734,211.86199951171875 64.8759994506836,154.89300537109375 67.76899719238281,96.46299743652344 C57.7599983215332,92.64800262451172 46.85599899291992,90.87899780273438 35.654998779296875,91.56099700927734 C35.654998779296875,91.56099700927734 33.35300064086914,91.70099639892578 33.35300064086914,91.70099639892578 C15.267999649047852,92.8010025024414 3.944000005722046,78.79100036621094 9.725000381469727,57.790000915527344 C34.38100051879883,-31.78499984741211 22.246999740600586,-124.18900299072266 18.35700035095215,-146.77999877929688 C14.467000007629395,-169.37100219726562 31.559999465942383,-177.52699279785156 48.395999908447266,-175.67799377441406 C48.395999908447266,-175.67799377441406 48.39699935913086,-175.67799377441406 48.39699935913086,-175.67799377441406 C160.02999877929688,-163.41299438476562 304.3890075683594,-197.35699462890625 375.5190124511719,-284.2650146484375 C375.5190124511719,-284.2650146484375 381.25,-291.75 381.20001220703125,-291.40399169921875 C390,-305.75 382.5,-320.25 368.8999938964844,-322.39898681640625z M-786,250"></path><g opacity="1" transform="matrix(1,0,0,1,0,0)"><path fill="rgb(27,27,109)" fill-opacity="1" d=" M-786,250"></path><path stroke-linecap="butt" stroke-linejoin="miter" fill-opacity="0" stroke-miterlimit="4" stroke="rgb(61,214,255)" stroke-opacity="1" stroke-width="0" d=" M-786,250"></path></g></g></g></mask></defs><g clip-path="url(#__lottie_element_2)"><g transform="matrix(1,0,0,1,0,-6.5)" opacity="1" style="display: block;"><g opacity="1" transform="matrix(1,0,0,1,133.78199768066406,235.54800415039062)"><path fill="rgb(255,255,255)" fill-opacity="1" d=" M-0.12399999797344208,-225.3769989013672 C-11.404999732971191,-225.3769989013672 -22.527999877929688,-222.38699340820312 -32.2869987487793,-216.72999572753906 C-32.2869987487793,-216.72999572753906 -101.64600372314453,-176.5330047607422 -101.64600372314453,-176.5330047607422 C-118.51100158691406,-166.75799560546875 -128.96800231933594,-148.57699584960938 -128.93600463867188,-129.08399963378906 C-128.93600463867188,-129.08399963378906 -128.79400634765625,40.25600051879883 -128.79400634765625,40.25600051879883 C-128.76100158691406,59.75600051879883 -118.24299621582031,77.9020004272461 -101.34600067138672,87.62100219726562 C-101.34600067138672,87.62100219726562 -31.854999542236328,127.58799743652344 -31.854999542236328,127.58799743652344 C-22.141000747680664,133.1739959716797 -11.081999778747559,136.1280059814453 0.12399999797344208,136.1280059814453 C11.404999732971191,136.1280059814453 22.527000427246094,133.13800048828125 32.28799819946289,127.48100280761719 C32.28799819946289,127.48100280761719 101.64600372314453,87.28299713134766 101.64600372314453,87.28299713134766 C118.51100158691406,77.50900268554688 128.96800231933594,59.32699966430664 128.93499755859375,39.83399963378906 C128.93499755859375,39.83399963378906 128.79400634765625,-129.50599670410156 128.79400634765625,-129.50599670410156 C128.76100158691406,-149.0050048828125 118.24400329589844,-167.1510009765625 101.34600067138672,-176.8699951171875 C101.34600067138672,-176.8699951171875 31.854999542236328,-216.83700561523438 31.854999542236328,-216.83700561523438 C22.139999389648438,-222.4239959716797 11.083000183105469,-225.3769989013672 -0.12399999797344208,-225.3769989013672z"></path></g><g opacity="1" transform="matrix(1,0,0,1,133.78199768066406,235.54800415039062)"><path fill="rgb(138,138,138)" fill-opacity="1" d=" M-0.12300000339746475,-219.70799255371094 C9.937999725341797,-219.70799255371094 20.003999710083008,-217.11300659179688 29.027999877929688,-211.92300415039062 C29.027999877929688,-211.92300415039062 98.51899719238281,-171.95599365234375 98.51899719238281,-171.95599365234375 C113.71600341796875,-163.21600341796875 123.09500122070312,-147.0330047607422 123.125,-129.5019989013672 C123.125,-129.5019989013672 123.26599884033203,39.84400177001953 123.26599884033203,39.84400177001953 C123.2959976196289,57.374000549316406 113.97000122070312,73.58799743652344 98.802001953125,82.37799835205078 C98.802001953125,82.37799835205078 29.44499969482422,122.57599639892578 29.44499969482422,122.57599639892578 C20.378000259399414,127.83100128173828 10.253000259399414,130.45899963378906 0.12399999797344208,130.45899963378906 C-9.937999725341797,130.45899963378906 -20.003999710083008,127.86299896240234 -29.02899932861328,122.6729965209961 C-29.02899932861328,122.6729965209961 -98.5199966430664,82.70600128173828 -98.5199966430664,82.70600128173828 C-113.71499633789062,73.96600341796875 -123.09400177001953,57.78300094604492 -123.12300109863281,40.25400161743164 C-123.12300109863281,40.25400161743164 -123.26599884033203,-129.093994140625 -123.26599884033203,-129.093994140625 C-123.29499816894531,-146.6230010986328 -113.97000122070312,-162.83799743652344 -98.8030014038086,-171.6280059814453 C-98.8030014038086,-171.6280059814453 -29.44499969482422,-211.8260040283203 -29.44499969482422,-211.8260040283203 C-20.37700080871582,-217.08099365234375 -10.251999855041504,-219.70799255371094 -0.12300000339746475,-219.70799255371094z"></path></g><g opacity="1" transform="matrix(1,0,0,1,133.88099670410156,149.0919952392578)"><path fill="rgb(255,255,255)" fill-opacity="1" d=" M113.94000244140625,-40.77899932861328 C113.91400146484375,-56.391998291015625 105.55999755859375,-70.80599975585938 92.0260009765625,-78.59100341796875 C92.0260009765625,-78.59100341796875 21.655000686645508,-119.06400299072266 21.655000686645508,-119.06400299072266 C8.119000434875488,-126.8489990234375 -8.541000366210938,-126.82099914550781 -22.04800033569336,-118.99099731445312 C-22.04800033569336,-118.99099731445312 -92.28500366210938,-78.28500366210938 -92.28500366210938,-78.28500366210938 C-105.79499816894531,-70.45500183105469 -114.0999984741211,-56.013999938964844 -114.0739974975586,-40.400001525878906 C-114.0739974975586,-40.400001525878906 -113.93900299072266,40.779998779296875 -113.93900299072266,40.779998779296875 C-113.91300201416016,56.393001556396484 -105.55899810791016,70.80699920654297 -92.0250015258789,78.59100341796875 C-92.0250015258789,78.59100341796875 -21.65399932861328,119.06500244140625 -21.65399932861328,119.06500244140625 C-8.119000434875488,126.8489990234375 8.541000366210938,126.82099914550781 22.049999237060547,118.99199676513672 C22.049999237060547,118.99199676513672 92.28600311279297,78.28500366210938 92.28600311279297,78.28500366210938 C105.79399871826172,70.45600128173828 114.0999984741211,56.01499938964844 114.07499694824219,40.4010009765625 C114.07499694824219,40.4010009765625 113.94000244140625,-40.77899932861328 113.94000244140625,-40.77899932861328z"></path></g><path fill="rgb(255,255,255)" fill-opacity="1" d=" M242.57000732421875,275.4750061035156 C242.57000732421875,275.4750061035156 242.57000732421875,283.97900390625 242.57000732421875,283.97900390625 C244.3990020751953,283.97900390625 245.4239959716797,285.14599609375 245.77999877929688,285.64801025390625 C246.1840057373047,286.2179870605469 246.78599548339844,287.3949890136719 246.26800537109375,288.8739929199219 C243.0679931640625,298.010986328125 236.69500732421875,305.71600341796875 228.3209991455078,310.5690002441406 C228.3209991455078,310.5690002441406 200.02200317382812,326.9700012207031 200.02200317382812,326.9700012207031 C194.77499389648438,330.010986328125 188.79600524902344,331.6180114746094 182.73199462890625,331.6180114746094 C182.73199462890625,331.6180114746094 84.76399993896484,331.6180114746094 84.76399993896484,331.6180114746094 C78.73899841308594,331.6180114746094 72.7959976196289,330.031005859375 67.572998046875,327.0270080566406 C67.572998046875,327.0270080566406 39.50199890136719,310.88299560546875 39.50199890136719,310.88299560546875 C31.099000930786133,306.04998779296875 24.69499969482422,298.35198974609375 21.4689998626709,289.2080078125 C20.94499969482422,287.7200012207031 21.547000885009766,286.5360107421875 21.95199966430664,285.9620056152344 C22.305999755859375,285.46099853515625 23.32900047302246,284.2929992675781 25.158000946044922,284.2909851074219 C65.00599670410156,284.25201416015625 198.4499969482422,284.114013671875 242.5590057373047,283.97900390625 C242.5590057373047,283.97900390625 242.57000732421875,275.4750061035156 242.57000732421875,275.4750061035156z"></path></g><g mask="url(#__lottie_element_6)" style="display: block;"><g transform="matrix(0.2477400004863739,0,0,0.2477400004863739,225.4205780029297,252.28497314453125)" opacity="1"><path fill="rgb(191,197,29)" fill-opacity="1" d=" M58.44499969482422,-589.3369750976562 C58.34299850463867,-650.6229858398438 25.55299949645996,-707.198974609375 -27.57200050354004,-737.7540283203125 C-27.57200050354004,-737.7540283203125 -286.97198486328125,-886.9450073242188 -286.97198486328125,-886.9450073242188 C-340.0989990234375,-917.5 -405.4909973144531,-917.3909912109375 -458.5140075683594,-886.6599731445312 C-458.5140075683594,-886.6599731445312 -717.4180297851562,-736.6090087890625 -717.4180297851562,-736.6090087890625 C-770.4429931640625,-705.8779907226562 -803.0440063476562,-649.1920166015625 -802.9420166015625,-587.906005859375 C-802.9420166015625,-587.906005859375 -802.4439697265625,-288.6629943847656 -802.4439697265625,-288.6629943847656 C-802.3419799804688,-227.3769989013672 -769.552001953125,-170.802001953125 -716.426025390625,-140.2469940185547 C-716.426025390625,-140.2469940185547 -457.0260009765625,8.944999694824219 -457.0260009765625,8.944999694824219 C-403.9010009765625,39.5 -338.5090026855469,39.38999938964844 -285.4840087890625,8.659000396728516 C-285.4840087890625,8.659000396728516 -26.582000732421875,-141.39300537109375 -26.582000732421875,-141.39300537109375 C26.44300079345703,-172.12399291992188 59.04399871826172,-228.80799865722656 58.94200134277344,-290.0950012207031 C58.94200134277344,-290.0950012207031 58.44499969482422,-589.3369750976562 58.44499969482422,-589.3369750976562z"></path></g></g><g fill="rgb(191,197,29)" font-size="35" font-family="Univia Pro" font-style="normal" font-weight="700" aria-label="BUY NOW" transform="matrix(0.7985600233078003,0,0,0.7985600233078003,135,305.5)" opacity="0.9999995870104275" style="display: block;"><g stroke-linecap="butt" stroke-linejoin="round" stroke-miterlimit="4" transform="matrix(1,0,0,1,-91.55999755859375,5.049069881439209)" opacity="1" style="display: inherit;"><g><g transform="matrix(1,0,0,1,0,0)" opacity="1" style="display: block;"><path d=" M13.36,-11.67 C16.18,-11.67 17.62,-10.93 17.62,-8.04 C17.62,-5.36 16.36,-4.65 13.32,-4.65 C13.32,-4.65 8.04,-4.65 8.04,-4.65 C8.04,-4.65 8.04,-11.67 8.04,-11.67 C8.04,-11.67 13.36,-11.67 13.36,-11.67z M12.3,-22.66 C15.61,-22.66 17.02,-21.92 17.02,-19.07 C17.02,-16.11 15.58,-15.65 11.63,-15.65 C11.63,-15.65 8.04,-15.65 8.04,-15.65 C8.04,-15.65 8.04,-22.66 8.04,-22.66 C8.04,-22.66 12.3,-22.66 12.3,-22.66z M12.87,-27.49 C9.97,-27.49 6.13,-27.39 3.03,-27.11 C2.61,-27.07 2.5,-27 2.5,-26.61 C2.5,-26.61 2.5,-0.67 2.5,-0.67 C2.5,-0.32 2.61,-0.21 3.03,-0.18 C6.13,0.07 10.82,0.18 13.71,0.18 C20.3,0.18 23.23,-1.55 23.23,-7.3 C23.23,-11.07 22.17,-13.22 18.65,-13.64 C18.65,-13.64 18.65,-13.75 18.65,-13.75 C21.54,-14.28 22.63,-16.11 22.63,-19.92 C22.63,-25.59 19.7,-27.49 12.87,-27.49z"></path><g opacity="1" transform="matrix(0.3499999940395355,0,0,0.3499999940395355,0,0)"></g></g></g></g><g stroke-linecap="butt" stroke-linejoin="round" stroke-miterlimit="4" transform="matrix(1,0,0,1,-65.76499938964844,5.049069881439209)" opacity="1" style="display: inherit;"><g><g transform="matrix(1,0,0,1,0,0)" opacity="1" style="display: block;"><path d=" M19.6,-27.28 C19.21,-27.28 19.07,-27.14 19.07,-26.75 C19.07,-26.75 19.07,-13.61 19.07,-13.61 C19.07,-6.45 17.94,-4.65 13.46,-4.65 C8.95,-4.65 7.82,-6.45 7.82,-13.61 C7.82,-13.61 7.82,-26.75 7.82,-26.75 C7.82,-27.14 7.68,-27.28 7.3,-27.28 C7.3,-27.28 2.82,-27.28 2.82,-27.28 C2.43,-27.28 2.29,-27.14 2.29,-26.75 C2.29,-26.75 2.29,-13.61 2.29,-13.61 C2.29,-2.57 4.55,0.18 13.46,0.18 C22.38,0.18 24.6,-2.57 24.6,-13.61 C24.6,-13.61 24.6,-26.75 24.6,-26.75 C24.6,-27.14 24.46,-27.28 24.07,-27.28 C24.07,-27.28 19.6,-27.28 19.6,-27.28z"></path><g opacity="1" transform="matrix(0.3499999940395355,0,0,0.3499999940395355,0,0)"></g></g></g></g><g stroke-linecap="butt" stroke-linejoin="round" stroke-miterlimit="4" transform="matrix(1,0,0,1,-37.76499938964844,5.049069881439209)" opacity="1" style="display: inherit;"><g><g transform="matrix(1,0,0,1,0,0)" opacity="1" style="display: block;"><path d=" M19.67,-27.28 C19.14,-27.28 18.93,-27.11 18.72,-26.72 C18.72,-26.72 12.55,-14.31 12.55,-14.31 C12.55,-14.31 6.42,-26.72 6.42,-26.72 C6.17,-27.11 5.99,-27.28 5.46,-27.28 C5.46,-27.28 0.49,-27.28 0.49,-27.28 C0,-27.28 -0.21,-27.07 0.11,-26.51 C0.11,-26.51 9.8,-8.81 9.8,-8.81 C9.8,-8.81 9.8,-0.56 9.8,-0.56 C9.8,-0.18 9.97,0 10.33,0 C10.33,0 14.8,0 14.8,0 C15.16,0 15.33,-0.18 15.33,-0.56 C15.33,-0.56 15.33,-8.74 15.33,-8.74 C15.33,-8.74 25.03,-26.51 25.03,-26.51 C25.34,-27.07 25.13,-27.28 24.64,-27.28 C24.64,-27.28 19.67,-27.28 19.67,-27.28z"></path><g opacity="1" transform="matrix(0.3499999940395355,0,0,0.3499999940395355,0,0)"></g></g></g></g><g stroke-linecap="butt" stroke-linejoin="round" stroke-miterlimit="4" transform="matrix(1,0,0,1,-11.514998435974121,5.049069881439209)" opacity="1" style="display: inherit;"><g><g style="display: none;"></g></g></g><g stroke-linecap="butt" stroke-linejoin="round" stroke-miterlimit="4" transform="matrix(1,0,0,1,-3.0099995136260986,5.049069881439209)" opacity="1" style="display: inherit;"><g><g transform="matrix(1,0,0,1,0,0)" opacity="1" style="display: block;"><path d=" M20.16,-27.28 C19.81,-27.28 19.63,-27.11 19.63,-26.72 C19.63,-26.72 19.63,-10.15 19.63,-10.15 C19.63,-10.15 8.71,-26.12 8.71,-26.12 C8.11,-26.96 7.93,-27.28 6.52,-27.28 C6.52,-27.28 3.03,-27.28 3.03,-27.28 C2.68,-27.28 2.5,-27.11 2.5,-26.72 C2.5,-26.72 2.5,-0.56 2.5,-0.56 C2.5,-0.18 2.68,0 3.03,0 C3.03,0 7.51,0 7.51,0 C7.86,0 8.04,-0.18 8.04,-0.56 C8.04,-0.56 8.04,-17.84 8.04,-17.84 C8.04,-17.84 19.6,-0.88 19.6,-0.88 C20.09,-0.21 20.51,0 21.36,0 C21.36,0 24.64,0 24.64,0 C24.99,0 25.17,-0.18 25.17,-0.56 C25.17,-0.56 25.17,-26.72 25.17,-26.72 C25.17,-27.11 24.99,-27.28 24.64,-27.28 C24.64,-27.28 20.16,-27.28 20.16,-27.28z"></path><g opacity="1" transform="matrix(0.3499999940395355,0,0,0.3499999940395355,0,0)"></g></g></g></g><g stroke-linecap="butt" stroke-linejoin="round" stroke-miterlimit="4" transform="matrix(1,0,0,1,25.759998321533203,5.049069881439209)" opacity="1" style="display: inherit;"><g><g transform="matrix(1,0,0,1,0,0)" opacity="1" style="display: block;"><path d=" M13.08,-22.66 C17.94,-22.66 18.89,-20.51 18.89,-13.61 C18.89,-6.77 17.94,-4.65 13.08,-4.65 C8.21,-4.65 7.26,-6.77 7.26,-13.61 C7.26,-20.51 8.21,-22.66 13.08,-22.66z M13.08,-27.49 C4.09,-27.49 1.66,-24.32 1.66,-13.61 C1.66,-2.96 4.09,0.18 13.08,0.18 C22.07,0.18 24.5,-2.96 24.5,-13.61 C24.5,-24.32 22.07,-27.49 13.08,-27.49z"></path><g opacity="1" transform="matrix(0.3499999940395355,0,0,0.3499999940395355,0,0)"></g></g></g></g><g stroke-linecap="butt" stroke-linejoin="round" stroke-miterlimit="4" transform="matrix(1,0,0,1,53.02499771118164,5.049069881439209)" opacity="1" style="display: inherit;"><g><g transform="matrix(1,0,0,1,0,0)" opacity="1" style="display: block;"><path d=" M32.85,-27.28 C32.5,-27.28 32.43,-27.14 32.32,-26.72 C32.32,-26.72 28.55,-6.52 28.55,-6.52 C28.37,-5.64 28.2,-5.46 27.74,-5.46 C27.18,-5.46 27.07,-5.64 26.86,-6.52 C26.86,-6.52 22.21,-25.77 22.21,-25.77 C22.1,-26.19 21.82,-26.33 21.5,-26.33 C21.5,-26.33 17.34,-26.33 17.34,-26.33 C17.02,-26.33 16.71,-26.19 16.6,-25.77 C16.6,-25.77 11.98,-6.52 11.98,-6.52 C11.77,-5.64 11.63,-5.46 11.07,-5.46 C10.61,-5.46 10.47,-5.64 10.26,-6.52 C10.26,-6.52 6.49,-26.72 6.49,-26.72 C6.42,-27.14 6.31,-27.28 5.99,-27.28 C5.99,-27.28 1.3,-27.28 1.3,-27.28 C0.95,-27.28 0.78,-27.14 0.85,-26.72 C0.85,-26.72 5.22,-4.02 5.22,-4.02 C5.96,-0.28 6.66,0.18 10.5,0.18 C14.87,0.18 15.37,-0.28 16.25,-4.02 C16.25,-4.02 19.42,-17.34 19.42,-17.34 C19.42,-17.34 22.56,-4.02 22.56,-4.02 C23.47,-0.28 23.93,0.18 28.34,0.18 C32.18,0.18 32.89,-0.28 33.59,-4.02 C33.59,-4.02 38,-26.72 38,-26.72 C38.07,-27.14 37.89,-27.28 37.5,-27.28 C37.5,-27.28 32.85,-27.28 32.85,-27.28z"></path><g opacity="1" transform="matrix(0.3499999940395355,0,0,0.3499999940395355,0,0)"></g></g></g></g></g></g></svg>